<svg xmlns="http://www.w3.org/2000/svg" viewBox="0 0 1600 1100" role="img" aria-labelledby="title desc">
  <title id="title">Комплект электронных пропусков</title>
  <desc id="desc">Шесть служебных карточек с фотографическими силуэтами, именами, ролями, номерами и уровнями допуска.</desc>
  <defs>
    <linearGradient id="card" x2="1" y2="1"><stop stop-color="#18313a"/><stop offset="1" stop-color="#0a1218"/></linearGradient>
    <linearGradient id="card2" x2="1" y2="1"><stop stop-color="#273037"/><stop offset="1" stop-color="#0b1116"/></linearGradient>
    <filter id="shadow" x="-20%" y="-20%" width="140%" height="150%"><feDropShadow dx="8" dy="12" stdDeviation="9" flood-color="#000" flood-opacity=".55"/></filter>
    <filter id="grain"><feTurbulence baseFrequency=".7" numOctaves="2" seed="22"/><feColorMatrix values="1 0 0 0 0 0 1 0 0 0 0 0 1 0 0 0 0 0 .05 0"/></filter>
    <g id="portrait-f"><circle cx="62" cy="49" r="29" fill="#b8866e"/><path d="M25 126c4-49 20-71 39-71 23 0 39 24 41 71Z" fill="#334b55"/><path d="M34 49c-5-36 12-57 33-57 24 0 38 24 30 58-8-16-17-29-31-37-10 17-21 27-32 36Z" fill="#25242a"/></g>
    <g id="portrait-m"><circle cx="62" cy="49" r="29" fill="#bd8b70"/><path d="M24 126c4-49 20-71 40-71 22 0 38 24 41 71Z" fill="#30444e"/><path d="M34 35c0-29 12-43 30-43 23 0 34 18 31 48-18-4-29-14-35-27-7 11-16 18-26 22Z" fill="#222a2e"/></g>
    <g id="chip"><rect width="64" height="52" rx="8" fill="#9b7a38" stroke="#f4d891" stroke-width="3"/><path d="M0 17h64M0 35h64M21 0v52M43 0v52" stroke="#5b431e" stroke-width="3"/></g>
  </defs>
  <rect width="1600" height="1100" fill="#071017"/><path d="M0 100h1600M0 300h1600M0 500h1600M0 700h1600M0 900h1600M200 0v1100M400 0v1100M600 0v1100M800 0v1100M1000 0v1100M1200 0v1100M1400 0v1100" stroke="#6ee7f2" stroke-opacity=".055"/>
  <g font-family="Arial, Helvetica, sans-serif" filter="url(#shadow)">
    <g transform="translate(90 100) rotate(-2)"><rect width="445" height="350" rx="24" fill="url(#card)" stroke="#aa8bff" stroke-width="5"/><path d="M0 77h445" stroke="#aa8bff" stroke-width="5"/><text x="26" y="47" fill="#e7f5f4" font-size="22" font-weight="700" letter-spacing="3">СЕВЕР-7 // ДОПУСК</text><g transform="translate(35 112)"><rect width="124" height="146" rx="8" fill="#101b22" stroke="#718b92" stroke-width="4"/><use href="#portrait-f" y="16"/></g><text x="184" y="142" fill="#9bb5ba" font-size="17">ВЛАДЕЛЕЦ</text><text x="184" y="176" fill="#f1f7f6" font-size="25" font-weight="700">ЕВА МИРОНОВА</text><text x="184" y="211" fill="#c8d5d4" font-size="18">продюсер проекта</text><text x="184" y="250" fill="#aa8bff" font-size="17" font-weight="700">УРОВЕНЬ: P-3</text><text x="35" y="313" fill="#819b9f" font-size="16">ID 7P-041 • ДЕЙСТВУЕТ ДО 01:00</text><use href="#chip" x="345" y="278"/><path d="M409 99v148" stroke="#aa8bff" stroke-opacity=".35" stroke-width="7"/><rect width="445" height="350" rx="24" filter="url(#grain)"/></g>
    <g transform="translate(577 84) rotate(2)"><rect width="445" height="350" rx="24" fill="url(#card)" stroke="#6ee7f2" stroke-width="5"/><path d="M0 77h445" stroke="#6ee7f2" stroke-width="5"/><text x="26" y="47" fill="#e7f5f4" font-size="22" font-weight="700" letter-spacing="3">СЕВЕР-7 // ДОПУСК</text><g transform="translate(35 112)"><rect width="124" height="146" rx="8" fill="#101b22" stroke="#718b92" stroke-width="4"/><use href="#portrait-m" y="16"/></g><text x="184" y="142" fill="#9bb5ba" font-size="17">ВЛАДЕЛЕЦ</text><text x="184" y="176" fill="#f1f7f6" font-size="25" font-weight="700">АРТЁМ КОСТИН</text><text x="184" y="211" fill="#c8d5d4" font-size="18">звукорежиссёр</text><text x="184" y="250" fill="#6ee7f2" font-size="17" font-weight="700">УРОВЕНЬ: T-4</text><text x="35" y="313" fill="#819b9f" font-size="16">ID 7T-118 • ДЕЙСТВУЕТ ДО 02:00</text><use href="#chip" x="345" y="278"/><path d="M409 99v148" stroke="#6ee7f2" stroke-opacity=".35" stroke-width="7"/><rect width="445" height="350" rx="24" filter="url(#grain)"/></g>
    <g transform="translate(1064 101) rotate(-1)"><rect width="445" height="350" rx="24" fill="url(#card2)" stroke="#ff6378" stroke-width="5"/><path d="M0 77h445" stroke="#ff6378" stroke-width="5"/><text x="26" y="47" fill="#e7f5f4" font-size="22" font-weight="700" letter-spacing="3">СЕВЕР-7 // ДОПУСК</text><g transform="translate(35 112)"><rect width="124" height="146" rx="8" fill="#101b22" stroke="#718b92" stroke-width="4"/><use href="#portrait-f" y="16"/></g><text x="184" y="142" fill="#9bb5ba" font-size="17">ВЛАДЕЛЕЦ</text><text x="184" y="176" fill="#f1f7f6" font-size="25" font-weight="700">НИКА СОКОЛОВА</text><text x="184" y="211" fill="#c8d5d4" font-size="18">руководитель охраны</text><text x="184" y="250" fill="#ff6378" font-size="17" font-weight="700">УРОВЕНЬ: S-4</text><text x="35" y="313" fill="#819b9f" font-size="16">ID 7S-007 • ДЕЙСТВУЕТ ДО 03:00</text><use href="#chip" x="345" y="278"/><path d="M409 99v148" stroke="#ff6378" stroke-opacity=".35" stroke-width="7"/><rect width="445" height="350" rx="24" filter="url(#grain)"/></g>
    <g transform="translate(90 610) rotate(2)"><rect width="445" height="350" rx="24" fill="url(#card2)" stroke="#f4b35d" stroke-width="5"/><path d="M0 77h445" stroke="#f4b35d" stroke-width="5"/><text x="26" y="47" fill="#e7f5f4" font-size="22" font-weight="700" letter-spacing="3">СЕВЕР-7 // ДОПУСК</text><g transform="translate(35 112)"><rect width="124" height="146" rx="8" fill="#101b22" stroke="#718b92" stroke-width="4"/><use href="#portrait-m" y="16"/></g><text x="184" y="142" fill="#9bb5ba" font-size="17">ВЛАДЕЛЕЦ</text><text x="184" y="176" fill="#f1f7f6" font-size="25" font-weight="700">РОМАН ВЕТРОВ</text><text x="184" y="211" fill="#c8d5d4" font-size="18">представитель инвестора</text><text x="184" y="250" fill="#f4b35d" font-size="17" font-weight="700">УРОВЕНЬ: G-2</text><text x="35" y="313" fill="#819b9f" font-size="16">ID 7G-052 • ДЕЙСТВУЕТ ДО 00:45</text><use href="#chip" x="345" y="278"/><path d="M409 99v148" stroke="#f4b35d" stroke-opacity=".35" stroke-width="7"/><rect width="445" height="350" rx="24" filter="url(#grain)"/></g>
    <g transform="translate(577 626) rotate(-2)"><rect width="445" height="350" rx="24" fill="url(#card)" stroke="#79d6b4" stroke-width="5"/><path d="M0 77h445" stroke="#79d6b4" stroke-width="5"/><text x="26" y="47" fill="#e7f5f4" font-size="22" font-weight="700" letter-spacing="3">СЕВЕР-7 // ДОПУСК</text><g transform="translate(35 112)"><rect width="124" height="146" rx="8" fill="#101b22" stroke="#718b92" stroke-width="4"/><use href="#portrait-m" y="16"/></g><text x="184" y="142" fill="#9bb5ba" font-size="17">ВЛАДЕЛЕЦ</text><text x="184" y="176" fill="#f1f7f6" font-size="25" font-weight="700">ЛЕВ АРСЕНЬЕВ</text><text x="184" y="211" fill="#c8d5d4" font-size="18">гость / автор</text><text x="184" y="250" fill="#79d6b4" font-size="17" font-weight="700">УРОВЕНЬ: G-2</text><text x="35" y="313" fill="#819b9f" font-size="16">ID 7G-063 • ДЕЙСТВУЕТ ДО 01:00</text><use href="#chip" x="345" y="278"/><path d="M409 99v148" stroke="#79d6b4" stroke-opacity=".35" stroke-width="7"/><rect width="445" height="350" rx="24" filter="url(#grain)"/></g>
    <g transform="translate(1064 610) rotate(1)"><rect width="445" height="350" rx="24" fill="url(#card2)" stroke="#d7d0bb" stroke-width="5"/><path d="M0 77h445" stroke="#d7d0bb" stroke-width="5"/><text x="26" y="47" fill="#e7f5f4" font-size="22" font-weight="700" letter-spacing="3">СЕВЕР-7 // ДОПУСК</text><g transform="translate(35 112)"><rect width="124" height="146" rx="8" fill="#101b22" stroke="#718b92" stroke-width="4"/><use href="#portrait-m" y="16"/></g><text x="184" y="142" fill="#9bb5ba" font-size="17">ВЛАДЕЛЕЦ</text><text x="184" y="176" fill="#f1f7f6" font-size="25" font-weight="700">МАТВЕЙ КОРИН</text><text x="184" y="211" fill="#c8d5d4" font-size="18">автор / пресса</text><text x="184" y="250" fill="#d7d0bb" font-size="17" font-weight="700">УРОВЕНЬ: M-3</text><text x="35" y="313" fill="#819b9f" font-size="16">ID 7M-024 • ДЕЙСТВУЕТ ДО 01:30</text><use href="#chip" x="345" y="278"/><path d="M409 99v148" stroke="#d7d0bb" stroke-opacity=".35" stroke-width="7"/><rect width="445" height="350" rx="24" filter="url(#grain)"/></g>
  </g>
  <text x="800" y="1045" text-anchor="middle" fill="#9bb5ba" font-family="Arial, Helvetica, sans-serif" font-size="20" letter-spacing="4">КОПИИ ПРОПУСКОВ // СВЕРЯТЬ С ЖУРНАЛОМ СЧИТЫВАТЕЛЕЙ</text>
</svg>
