<svg xmlns="http://www.w3.org/2000/svg" viewBox="0 0 1440 900" role="img" aria-labelledby="title desc">
  <title id="title">Архивная комната после события</title>
  <desc id="desc">Тёмный архив после события со стеллажами, внутренним дверным косяком и монтажным столом; две крупные области требуют усиления изображения.</desc>
  <defs>
    <linearGradient id="wall" x2="0" y2="1"><stop stop-color="#1c3035"/><stop offset="1" stop-color="#080f13"/></linearGradient>
    <linearGradient id="floor" x2="0" y2="1"><stop stop-color="#142126"/><stop offset="1" stop-color="#05090c"/></linearGradient>
    <linearGradient id="lamp" x2="0" y2="1"><stop stop-color="#fff1b4" stop-opacity=".75"/><stop offset="1" stop-color="#f4b35d" stop-opacity="0"/></linearGradient>
    <radialGradient id="emergency"><stop stop-color="#ff6378" stop-opacity=".4"/><stop offset="1" stop-color="#ff6378" stop-opacity="0"/></radialGradient>
    <pattern id="dust" width="59" height="47" patternUnits="userSpaceOnUse"><circle cx="8" cy="12" r="1.1" fill="#d8fbff" opacity=".18"/><circle cx="41" cy="29" r=".8" fill="#f4b35d" opacity=".2"/></pattern>
    <filter id="grain"><feTurbulence baseFrequency=".48" numOctaves="3" seed="26"/><feColorMatrix values="1 0 0 0 0 0 1 0 0 0 0 0 1 0 0 0 0 0 .065 0"/></filter>
  </defs>
  <rect width="1440" height="900" fill="url(#wall)"/><path d="M0 624h1440v276H0Z" fill="url(#floor)"/><path d="M0 624h1440M0 758h1440M208 624 82 900M470 624 417 900M720 624v276M970 624l54 276M1232 624l125 276" stroke="#678186" stroke-opacity=".32" stroke-width="5"/>
  <path d="M0 110h1440M180 0v624M1260 0v624" stroke="#6f8c91" stroke-opacity=".24" stroke-width="5"/>
  <g transform="translate(34 129)">
    <rect width="424" height="492" fill="#0d171b" stroke="#728b8e" stroke-width="8"/><path d="M0 110h424M0 232h424M0 356h424M142 0v492M284 0v492" stroke="#4f666a" stroke-width="7"/>
    <g fill="#6b5b45" stroke="#b39462" stroke-width="3"><rect x="14" y="19" width="113" height="82"/><rect x="153" y="33" width="115" height="68"/><rect x="299" y="16" width="108" height="85"/><rect x="17" y="126" width="105" height="95"/><rect x="151" y="143" width="120" height="78"/><rect x="297" y="124" width="109" height="97"/><rect x="14" y="249" width="116" height="94"/><rect x="154" y="267" width="112" height="76"/><rect x="300" y="247" width="104" height="96"/><rect x="17" y="373" width="106" height="102"/><rect x="153" y="382" width="116" height="93"/><rect x="298" y="370" width="109" height="105"/></g>
    <g fill="#d7d0bb" opacity=".74"><rect x="37" y="47" width="69" height="18"/><rect x="177" y="56" width="68" height="17"/><rect x="325" y="49" width="59" height="18"/><rect x="39" y="160" width="61" height="18"/><rect x="178" y="170" width="68" height="18"/><rect x="324" y="157" width="60" height="18"/><rect x="39" y="281" width="66" height="18"/><rect x="180" y="292" width="60" height="18"/><rect x="323" y="279" width="60" height="18"/></g>
  </g>
  <g transform="translate(1005 134)">
    <rect width="397" height="488" fill="#0d171b" stroke="#728b8e" stroke-width="8"/><path d="M0 113h397M0 237h397M0 361h397M132 0v488M264 0v488" stroke="#4f666a" stroke-width="7"/>
    <g fill="#4e5a57" stroke="#809b98" stroke-width="3"><rect x="15" y="21" width="100" height="77"/><rect x="149" y="17" width="100" height="81"/><rect x="280" y="28" width="101" height="70"/><rect x="17" y="132" width="98" height="92"/><rect x="148" y="143" width="100" height="81"/><rect x="280" y="127" width="102" height="97"/><rect x="14" y="252" width="103" height="96"/><rect x="148" y="266" width="102" height="82"/><rect x="280" y="248" width="101" height="100"/><rect x="17" y="378" width="98" height="92"/><rect x="148" y="373" width="101" height="97"/><rect x="279" y="385" width="104" height="85"/></g>
    <g fill="#d7d0bb" opacity=".66"><rect x="37" y="47" width="59" height="16"/><rect x="170" y="45" width="58" height="16"/><rect x="301" y="53" width="59" height="16"/><rect x="36" y="160" width="60" height="17"/><rect x="170" y="170" width="58" height="17"/><rect x="303" y="158" width="56" height="17"/></g>
  </g>
  <g aria-label="Внутренний дверной косяк" transform="translate(468 151)">
    <rect width="62" height="474" fill="#111c20" stroke="#82999a" stroke-width="7"/>
    <path d="M45 0v474" stroke="#050b0d" stroke-width="13"/>
    <path d="M42 329c19 5 31 18 40 40" fill="none" stroke="#f4b35d" stroke-opacity=".2" stroke-width="7" stroke-linecap="round"/>
    <path d="M43 333c21 5 31 17 38 34" fill="none" stroke="#15191a" stroke-opacity=".24" stroke-width="2" stroke-dasharray="4 4"/>
  </g>
  <g transform="translate(545 414)">
    <path d="M0 90h365l54 82H-48Z" fill="#4a382a" stroke="#b38955" stroke-width="7"/>
    <path d="M20 172v188M351 172v188" stroke="#66503c" stroke-width="14"/>
    <path d="M72 70h126v85H72Z" fill="#d7d0bb" transform="rotate(-3 72 70)"/>
    <path d="M91 94h82M91 116h68M91 138h78" stroke="#4c5e60" stroke-width="6"/>
    <ellipse cx="254" cy="116" rx="47" ry="29" fill="#d8c892" fill-opacity=".06" stroke="#e9dda8" stroke-opacity=".22" stroke-width="5" stroke-dasharray="9 7"/>
    <g transform="translate(294 79) rotate(7)">
      <ellipse cx="0" cy="35" rx="43" ry="28" fill="#a7742e" stroke="#f0c76f" stroke-width="7"/>
      <rect x="-29" y="2" width="58" height="36" rx="8" fill="#b98735" stroke="#f0c76f" stroke-width="5"/>
      <path d="M-18 18h36" stroke="#6b4318" stroke-width="5"/>
    </g>
    <rect x="345" y="64" width="59" height="74" rx="6" fill="#28393d" stroke="#6ee7f2" stroke-width="4"/>
    <path d="M354 81h41M354 98h30M354 115h38" stroke="#6ee7f2" stroke-width="4"/>
  </g>
  <g transform="translate(793 175)"><path d="M0 0h174v219H0Z" fill="#202b2c" stroke="#97aaa6" stroke-width="8"/><circle cx="87" cy="78" r="47" fill="#0b1214" stroke="#f4b35d" stroke-width="6"/><circle cx="87" cy="78" r="9" fill="#f4b35d"/><path d="M87 78 116 56M87 78v34" stroke="#d7d0bb" stroke-width="7" stroke-linecap="round"/><rect x="28" y="147" width="118" height="38" fill="#0b1518" stroke="#6ee7f2" stroke-width="4"/><text x="87" y="173" text-anchor="middle" fill="#d8fbff" font-family="Arial, Helvetica, sans-serif" font-size="18">СЕКТОР A-3</text></g>
  <g transform="translate(112 668)"><rect width="205" height="149" rx="7" fill="#192428" stroke="#8ca09d" stroke-width="8"/><circle cx="103" cy="74" r="35" fill="#0a1113" stroke="#f4b35d" stroke-width="6"/><path d="M103 74 124 54M103 74l-26 9M103 74l7 27" stroke="#d7d0bb" stroke-width="6" stroke-linecap="round"/><rect x="41" y="122" width="124" height="14" fill="#6ee7f2" opacity=".55"/></g>
  <g transform="translate(700 76)"><path d="M0 0h42l35 148H-35Z" fill="#263437" stroke="#b7c9c6" stroke-width="5"/><ellipse cy="148" rx="116" ry="34" fill="#f4b35d" opacity=".68"/><path d="M-116 148h232l112 363h-456Z" fill="url(#lamp)" opacity=".42"/><path d="M21 0v-92" stroke="#5f777b" stroke-width="8"/></g>
  <circle cx="1290" cy="88" r="190" fill="url(#emergency)"/><circle cx="1290" cy="88" r="15" fill="#ff8091"/>
  <g transform="translate(488 288) rotate(-8)"><rect width="92" height="135" fill="#d7d0bb" stroke="#a09270" stroke-width="4"/><path d="M16 24h60M16 47h44M16 70h62M16 93h36" stroke="#3f5052" stroke-width="4"/><circle cx="72" cy="112" r="11" fill="#a64d46"/></g>
  <rect width="1440" height="900" fill="url(#dust)"/><rect width="1440" height="900" filter="url(#grain)"/>
  <g font-family="Arial, Helvetica, sans-serif"><rect x="28" y="28" width="400" height="66" rx="8" fill="#061013" fill-opacity=".78" stroke="#f4b35d" stroke-opacity=".55"/><text x="54" y="69" fill="#f6dfae" font-size="24" letter-spacing="3">ФОТО 04-B // АРХИВНАЯ КОМНАТА</text><text x="1398" y="866" text-anchor="end" fill="#9ab5b8" font-size="19">УСИЛЕНИЕ: 1.0× • ИСХОДНЫЙ КАДР</text></g>
</svg>
