<svg xmlns="http://www.w3.org/2000/svg" viewBox="0 0 1440 900" role="img" aria-labelledby="title desc">
  <title id="title">Архивная комната до события</title>
  <desc id="desc">Технический кадр приёмки 23:50: дверная прокладка чистая, а латунный прижим точно совмещён с круглым контуром на монтажном столе.</desc>
  <defs>
    <linearGradient id="wall" x2="0" y2="1"><stop stop-color="#496169"/><stop offset="1" stop-color="#17272c"/></linearGradient>
    <linearGradient id="floor" x2="0" y2="1"><stop stop-color="#263b42"/><stop offset="1" stop-color="#0b1418"/></linearGradient>
    <radialGradient id="lamp"><stop stop-color="#fff6c9" stop-opacity=".88"/><stop offset="1" stop-color="#f4b35d" stop-opacity="0"/></radialGradient>
    <pattern id="grid" width="48" height="48" patternUnits="userSpaceOnUse"><path d="M48 0H0v48" fill="none" stroke="#d8fbff" stroke-opacity=".055"/></pattern>
    <filter id="grain"><feTurbulence baseFrequency=".38" numOctaves="2" seed="31"/><feColorMatrix values="1 0 0 0 0 0 1 0 0 0 0 0 1 0 0 0 0 0 .04 0"/></filter>
  </defs>
  <rect width="1440" height="900" fill="url(#wall)"/>
  <rect width="1440" height="900" fill="url(#grid)"/>
  <path d="M0 624h1440v276H0Z" fill="url(#floor)"/>
  <path d="M0 624h1440M0 758h1440M208 624 82 900M470 624 417 900M720 624v276M970 624l54 276M1232 624l125 276" stroke="#91adb0" stroke-opacity=".32" stroke-width="5"/>
  <g transform="translate(34 129)">
    <rect width="424" height="492" fill="#182a30" stroke="#9bb2b2" stroke-width="8"/>
    <path d="M0 110h424M0 232h424M0 356h424M142 0v492M284 0v492" stroke="#668087" stroke-width="7"/>
    <g fill="#77674d" stroke="#c3a879" stroke-width="3"><rect x="14" y="19" width="113" height="82"/><rect x="153" y="33" width="115" height="68"/><rect x="299" y="16" width="108" height="85"/><rect x="17" y="126" width="105" height="95"/><rect x="151" y="143" width="120" height="78"/><rect x="297" y="124" width="109" height="97"/><rect x="14" y="249" width="116" height="94"/><rect x="154" y="267" width="112" height="76"/><rect x="300" y="247" width="104" height="96"/><rect x="17" y="373" width="106" height="102"/><rect x="153" y="382" width="116" height="93"/><rect x="298" y="370" width="109" height="105"/></g>
  </g>
  <g transform="translate(1005 134)">
    <rect width="397" height="488" fill="#182a30" stroke="#9bb2b2" stroke-width="8"/>
    <path d="M0 113h397M0 237h397M0 361h397M132 0v488M264 0v488" stroke="#668087" stroke-width="7"/>
    <g fill="#596762" stroke="#9bb1ad" stroke-width="3"><rect x="15" y="21" width="100" height="77"/><rect x="149" y="17" width="100" height="81"/><rect x="280" y="28" width="101" height="70"/><rect x="17" y="132" width="98" height="92"/><rect x="148" y="143" width="100" height="81"/><rect x="280" y="127" width="102" height="97"/><rect x="14" y="252" width="103" height="96"/><rect x="148" y="266" width="102" height="82"/><rect x="280" y="248" width="101" height="100"/><rect x="17" y="378" width="98" height="92"/><rect x="148" y="373" width="101" height="97"/><rect x="279" y="385" width="104" height="85"/></g>
  </g>
  <g aria-label="Чистый внутренний дверной косяк" transform="translate(468 151)">
    <rect width="62" height="474" fill="#263b40" stroke="#b9cbc8" stroke-width="7"/>
    <path d="M45 0v474" stroke="#111d21" stroke-width="13"/>
  </g>
  <g transform="translate(545 414)">
    <path d="M0 90h365l54 82H-48Z" fill="#624b35" stroke="#c7a26a" stroke-width="7"/>
    <path d="M20 172v188M351 172v188" stroke="#765d44" stroke-width="14"/>
    <path d="M72 70h126v85H72Z" fill="#e4ddc8" transform="rotate(-3 72 70)"/>
    <path d="M91 94h82M91 116h68M91 138h78" stroke="#536769" stroke-width="6"/>
    <ellipse cx="254" cy="116" rx="47" ry="29" fill="#d8c892" fill-opacity=".18" stroke="#efe2ad" stroke-width="5" stroke-dasharray="9 7"/>
    <g transform="translate(254 81)">
      <ellipse cx="0" cy="35" rx="43" ry="28" fill="#a7742e" stroke="#f0c76f" stroke-width="7"/>
      <rect x="-29" y="2" width="58" height="36" rx="8" fill="#b98735" stroke="#f0c76f" stroke-width="5"/>
      <path d="M-18 18h36" stroke="#6b4318" stroke-width="5"/>
    </g>
    <rect x="345" y="64" width="59" height="74" rx="6" fill="#30474c" stroke="#8cebf2" stroke-width="4"/>
    <path d="M354 81h41M354 98h30M354 115h38" stroke="#8cebf2" stroke-width="4"/>
  </g>
  <g transform="translate(700 76)"><path d="M0 0h42l35 148H-35Z" fill="#405559" stroke="#d8e3df" stroke-width="5"/><ellipse cy="148" rx="116" ry="34" fill="#fff0b0" opacity=".84"/><path d="M-116 148h232l112 363h-456Z" fill="url(#lamp)" opacity=".56"/><path d="M21 0v-92" stroke="#839a9c" stroke-width="8"/></g>
  <rect width="1440" height="900" filter="url(#grain)"/>
  <g font-family="Arial, Helvetica, sans-serif"><rect x="28" y="28" width="490" height="66" rx="8" fill="#061013" fill-opacity=".76" stroke="#6ee7f2" stroke-opacity=".7"/><text x="54" y="69" fill="#d8fbff" font-size="24" letter-spacing="3">ТЕХПРИЁМКА 23:50 // АРХИВ A-3</text><text x="1398" y="866" text-anchor="end" fill="#c7d9da" font-size="19">КОНТРОЛЬНЫЙ СВЕТ • ДО СОБЫТИЯ</text></g>
</svg>
