<svg xmlns="http://www.w3.org/2000/svg" viewBox="0 0 1280 720" role="img" aria-labelledby="title desc">
  <title id="title">Кадр C — коридор студии A</title><desc id="desc">Кадр C в аварийном режиме у студии A: три световые дуги, включённый табличный индикатор «ЭФИР» и Лев Арсеньев, различимый по шарфу и записной книжке.</desc>
  <defs><linearGradient id="bg" x2="0" y2="1"><stop stop-color="#273331"/><stop offset="1" stop-color="#070c0e"/></linearGradient><radialGradient id="red"><stop stop-color="#ff6378" stop-opacity=".75"/><stop offset="1" stop-color="#ff6378" stop-opacity="0"/></radialGradient><pattern id="scan" width="5" height="5" patternUnits="userSpaceOnUse"><path d="M0 1h1280" stroke="#f4f6e8" stroke-opacity=".05"/></pattern><filter id="noise"><feTurbulence baseFrequency=".48" numOctaves="2" seed="12"/><feColorMatrix values="1 0 0 0 0 0 1 0 0 0 0 0 1 0 0 0 0 0 .08 0"/></filter></defs>
  <rect width="1280" height="720" fill="url(#bg)"/><path d="M0 574h1280v146H0Z" fill="#0a1011"/><path d="M0 574h1280" stroke="#8c9b91" stroke-opacity=".45" stroke-width="5"/><path d="M125 574V139h426v435M729 574V139h409v435" fill="#101a1a" stroke="#758a84" stroke-width="6"/>
  <path d="M181 574V190h306v384" fill="#0a1113" stroke="#536d69" stroke-width="6"/><path d="M760 574V190h348v384" fill="#151e1e" stroke="#536d69" stroke-width="6"/><path d="M774 205h320v369H774Z" fill="#111a1a"/><path d="M792 232h284v68H792Z" fill="#1d2925" stroke="#f4b35d" stroke-width="4"/><text x="934" y="277" text-anchor="middle" fill="#f4d99f" font-family="Arial, Helvetica, sans-serif" font-size="30" letter-spacing="6">СТУДИЯ A</text>
  <rect x="699" y="374" width="43" height="78" rx="7" fill="#05090a" stroke="#ff6378" stroke-width="5"/><circle cx="720" cy="394" r="8" fill="#ff6378"/><path d="M710 420h20M710 437h20" stroke="#d8fbff" stroke-width="4"/>
  <g fill="none" stroke="#f4b35d" stroke-width="12" stroke-linecap="round"><path d="M362 164q70-94 140 0"/><path d="M522 164q70-94 140 0"/><path d="M682 164q70-94 140 0"/></g><g font-family="Arial, Helvetica, sans-serif"><rect x="511" y="174" width="162" height="34" rx="7" fill="#071017" stroke="#f4b35d"/><text x="592" y="197" text-anchor="middle" fill="#f4d69f" font-size="15" letter-spacing="2">3 СВЕТОВЫЕ ДУГИ</text></g>
  <circle cx="1114" cy="117" r="180" fill="url(#red)"/><circle cx="1114" cy="117" r="14" fill="#ff9aaa"/><path d="M1090 136h48" stroke="#c3aca6" stroke-width="8"/>
  <g transform="translate(267 247)"><circle cx="0" cy="36" r="30" fill="#a8755d"/><path d="M-35 30c-8-43 12-68 38-68 33 0 49 32 34 72-7-22-19-37-35-47-12 18-24 32-37 43Z" fill="#342925"/><path d="M-62 220c6-101 28-147 65-147 40 0 63 48 68 147Z" fill="#423d39" stroke="#8b9894" stroke-width="5"/><path d="M-42 91c34 25 61 25 90-2M-35 101l43 64 38-65" stroke="#79d6b4" stroke-width="7" fill="none"/><rect x="30" y="125" width="61" height="82" rx="6" fill="#d7d0bb" stroke="#79d6b4" stroke-width="4"/><path d="M41 145h39M41 164h31M41 183h38" stroke="#405457" stroke-width="4"/><rect x="-76" y="232" width="158" height="38" rx="8" fill="#071017" stroke="#79d6b4"/><text x="3" y="258" text-anchor="middle" fill="#a9ead2" font-family="Arial, Helvetica, sans-serif" font-size="18" font-weight="700">ЛЕВ // ШАРФ</text></g>
  <g transform="translate(523 317)"><rect width="164" height="72" rx="10" fill="#081214" stroke="#ff6378" stroke-width="6"/><circle cx="29" cy="36" r="11" fill="#ff6378"/><text x="98" y="46" text-anchor="middle" fill="#ffd2d8" font-family="Arial, Helvetica, sans-serif" font-size="25" font-weight="700" letter-spacing="4">ЭФИР</text><path d="M28 54h118" stroke="#ff6378" stroke-opacity=".55" stroke-width="3"/></g>
  <path d="m762 208 342 0-130 366H812Z" fill="#c8d9cf" opacity=".035"/><path d="M796 210 916 574M846 210l120 364M896 210l120 364M946 210l120 364" stroke="#9cb3aa" stroke-opacity=".11" stroke-width="12"/><path d="M0 0h1280v720H0Z" fill="url(#scan)"/><rect width="1280" height="720" filter="url(#noise)"/>
  <g font-family="Arial, Helvetica, sans-serif" font-size="19"><rect x="24" y="22" width="256" height="48" rx="8" fill="#061013" fill-opacity=".8" stroke="#6ee7f2" stroke-opacity=".55"/><text x="44" y="54" fill="#d8fbff" letter-spacing="3">СЕВЕР-7 // КАМ 03</text><rect x="1002" y="22" width="254" height="48" rx="8" fill="#061013" fill-opacity=".8" stroke="#f4b35d" stroke-opacity=".7"/><text x="1129" y="54" text-anchor="middle" fill="#f4d69f" letter-spacing="2">КАДР C // БЕЗ МЕТКИ</text><text x="30" y="690" fill="#9bc4c8">АВАРИЙНЫЙ СВЕТ • 3 ДУГИ</text><text x="1248" y="690" text-anchor="end" fill="#79d6b4">ИНДИКАТОР «ЭФИР» • ЛЕВ</text></g>
</svg>
