<svg xmlns="http://www.w3.org/2000/svg" viewBox="0 0 1280 720" role="img" aria-labelledby="title desc">
  <title id="title">Кадр D — технический коридор</title><desc id="desc">Кадр D в аварийном режиме: четыре световые дуги и поднятый механический флажок реле в открытом электрощите.</desc>
  <defs><linearGradient id="bg" x2="0" y2="1"><stop stop-color="#35464b"/><stop offset="1" stop-color="#0a1114"/></linearGradient><radialGradient id="light"><stop stop-color="#e7ffff" stop-opacity=".85"/><stop offset="1" stop-color="#6ee7f2" stop-opacity="0"/></radialGradient><pattern id="scan" width="6" height="6" patternUnits="userSpaceOnUse"><path d="M0 2h1280" stroke="#e8ffff" stroke-opacity=".045"/></pattern><filter id="noise"><feTurbulence baseFrequency=".55" numOctaves="2" seed="17"/><feColorMatrix values="1 0 0 0 0 0 1 0 0 0 0 0 1 0 0 0 0 0 .07 0"/></filter></defs>
  <rect width="1280" height="720" fill="url(#bg)"/><path d="M0 88h1280M0 602h1280M331 88l180 514M949 88 769 602" stroke="#9cb2b4" stroke-opacity=".58" stroke-width="6"/><path d="M0 602h1280L949 88H331Z" fill="#18272b" opacity=".55"/><path d="M511 602h258L717 88H563Z" fill="#1b2a2e"/>
  <g fill="none" stroke="#f4b35d" stroke-width="12" stroke-linecap="round"><path d="M310 158q68-94 136 0"/><path d="M470 158q68-94 136 0"/><path d="M630 158q68-94 136 0"/><path d="M790 158q68-94 136 0"/></g><g font-family="Arial, Helvetica, sans-serif"><rect x="525" y="177" width="174" height="34" rx="7" fill="#071017" stroke="#f4b35d"/><text x="612" y="200" text-anchor="middle" fill="#f4d69f" font-size="15" letter-spacing="2">4 СВЕТОВЫЕ ДУГИ</text></g>
  <g transform="translate(73 187)"><rect width="228" height="310" fill="#172429" stroke="#9bb0b2" stroke-width="6"/><rect x="22" y="27" width="183" height="226" fill="#0d161a" stroke="#607a7e" stroke-width="4"/><g fill="#f4b35d"><circle cx="55" cy="67" r="12"/><circle cx="95" cy="67" r="12"/><circle cx="135" cy="67" r="12"/><circle cx="175" cy="67" r="12"/></g><path d="M45 113h140M45 150h140M45 187h140M45 224h140" stroke="#607a7e" stroke-width="10"/><path d="M228 0l79 39v305l-79-34Z" fill="#101c20" stroke="#9bb0b2" stroke-width="6"/><path d="M248 43v223M270 56v222" stroke="#607a7e" stroke-width="5"/><g transform="translate(128 136)"><path d="M0 72V0" stroke="#d7d0bb" stroke-width="8"/><path d="M0 3h79l-28 29 28 29H0Z" fill="#ff6378" stroke="#ffd2d8" stroke-width="4"/><circle cy="72" r="12" fill="#f4b35d"/></g></g>
  <g font-family="Arial, Helvetica, sans-serif"><rect x="79" y="515" width="292" height="39" rx="8" fill="#071017" stroke="#ff6378"/><text x="225" y="541" text-anchor="middle" fill="#ff9aaa" font-size="17" font-weight="700">ФЛАЖОК РЕЛЕ // ПОДНЯТ</text><path d="M225 515 202 390" stroke="#ff6378" stroke-width="4" stroke-dasharray="8 7"/></g>
  <g transform="translate(994 450) rotate(75)"><rect x="-24" y="0" width="48" height="126" rx="18" fill="#a94342" stroke="#ff817f" stroke-width="5"/><path d="M-10 0v-29h26l16 16" stroke="#b7c6c3" stroke-width="7" fill="none"/><path d="M-21 61h42" stroke="#d6d0bb" stroke-width="13"/></g>
  <path d="M302 534c132-87 250 88 384 31 111-47 124-134 253-73" fill="none" stroke="#f4b35d" stroke-width="10"/><g fill="#f4b35d"><circle cx="302" cy="534" r="14"/><circle cx="939" cy="492" r="14"/></g>
  <path d="M1110 176h112v310h-112Z" fill="#0b1417" stroke="#789298" stroke-width="5"/><path d="M1129 212h74M1129 248h74M1129 284h74M1129 320h74" stroke="#6ee7f2" stroke-opacity=".6" stroke-width="8"/><circle cx="1166" cy="408" r="23" fill="#79d6b4"/><path d="M0 0h1280v720H0Z" fill="url(#scan)"/><rect width="1280" height="720" filter="url(#noise)"/>
  <g font-family="Arial, Helvetica, sans-serif" font-size="19"><rect x="24" y="22" width="256" height="48" rx="8" fill="#061013" fill-opacity=".8" stroke="#6ee7f2" stroke-opacity=".55"/><text x="44" y="54" fill="#d8fbff" letter-spacing="3">СЕВЕР-7 // КАМ 04</text><rect x="1002" y="22" width="254" height="48" rx="8" fill="#061013" fill-opacity=".8" stroke="#f4b35d" stroke-opacity=".7"/><text x="1129" y="54" text-anchor="middle" fill="#f4d69f" letter-spacing="2">КАДР D // БЕЗ МЕТКИ</text><text x="30" y="690" fill="#9bc4c8">АВАРИЙНЫЙ СВЕТ • 4 ДУГИ</text><text x="1248" y="690" text-anchor="end" fill="#ff9aaa">ФЛАЖОК РЕЛЕ ПОДНЯТ</text></g>
</svg>
