<svg xmlns="http://www.w3.org/2000/svg" viewBox="0 0 1280 720" role="img" aria-labelledby="title desc">
  <title id="title">Кадр B — галерея</title><desc id="desc">Кадр B в аварийном режиме: на потолке видны две световые дуги, в галерее находится Ника Соколова, опознаваемая по форме охраны и рации.</desc>
  <defs><linearGradient id="bg" x2="0" y2="1"><stop stop-color="#1b3038"/><stop offset="1" stop-color="#070b10"/></linearGradient><linearGradient id="beam" x1="0" y1="0" x2="1" y2="1"><stop stop-color="#d8fbff" stop-opacity=".52"/><stop offset="1" stop-color="#6ee7f2" stop-opacity="0"/></linearGradient><pattern id="scan" width="6" height="6" patternUnits="userSpaceOnUse"><path d="M0 2h1280" stroke="#e0ffff" stroke-opacity=".05"/></pattern><filter id="noise"><feTurbulence baseFrequency=".52" numOctaves="2" seed="8"/><feColorMatrix values="1 0 0 0 0 0 1 0 0 0 0 0 1 0 0 0 0 0 .075 0"/></filter></defs>
  <rect width="1280" height="720" fill="url(#bg)"/><path d="M0 577h1280v143H0Z" fill="#0a1014"/><path d="M0 577h1280M160 577l-55 143M400 577l-22 143M640 577v143M880 577l23 143M1120 577l57 143" stroke="#5d797d" stroke-opacity=".45" stroke-width="4"/>
  <path d="M40 118h192v380H40ZM1012 118h230v380h-230Z" fill="#0b1419" stroke="#60858a" stroke-width="5"/><path d="M65 150h142v306H65ZM1038 150h178v306h-178Z" fill="#17303a"/><path d="M1045 162 456 577h329l431-269V162Z" fill="url(#beam)"/>
  <g transform="translate(405 190)"><rect width="354" height="283" rx="12" fill="#101a20" fill-opacity=".7" stroke="#83bfc5" stroke-width="7"/><path d="M31 39h292v203H31Z" fill="#16313a" fill-opacity=".58" stroke="#6ee7f2" stroke-opacity=".55" stroke-width="4"/><path d="M75 215c21-104 59-161 105-171 45 10 79 65 99 171Z" fill="#294a51"/><circle cx="178" cy="94" r="38" fill="none" stroke="#f4b35d" stroke-width="8"/><path d="M178 132v68M124 200h109" stroke="#f4b35d" stroke-width="8"/></g>
  <g transform="translate(860 448)"><path d="M0 0h130v93H0Z" fill="#18262d" stroke="#8ea9aa" stroke-width="6"/><path d="M17 0v-40M113 0v-40M15 28h100M29 93v38M101 93v38" stroke="#8ea9aa" stroke-width="7"/><circle cx="29" cy="135" r="12" fill="#0b1114" stroke="#8ea9aa" stroke-width="4"/><circle cx="101" cy="135" r="12" fill="#0b1114" stroke="#8ea9aa" stroke-width="4"/><rect x="24" y="14" width="82" height="18" fill="#f4b35d" opacity=".7"/></g>
  <g fill="none" stroke="#f4b35d" stroke-width="12" stroke-linecap="round"><path d="M360 164q85-108 170 0"/><path d="M575 164q85-108 170 0"/></g><g font-family="Arial, Helvetica, sans-serif"><rect x="469" y="173" width="168" height="34" rx="7" fill="#071017" stroke="#f4b35d"/><text x="553" y="196" text-anchor="middle" fill="#f4d69f" font-size="15" letter-spacing="2">2 СВЕТОВЫЕ ДУГИ</text></g>
  <g transform="translate(286 520)"><ellipse cx="0" cy="27" rx="31" ry="10" fill="#05080a"/><path d="M-21 0h42l-5 34h-32Z" fill="#c8c3aa"/><path d="M21 8c25-2 26 24 2 25" fill="none" stroke="#c8c3aa" stroke-width="7"/><path d="M-17 4h34" stroke="#f4b35d" stroke-width="4"/></g>
  <g transform="translate(780 285)"><circle cx="0" cy="42" r="31" fill="#9b6a55"/><path d="M-31 35c0-47 19-70 38-70 27 0 45 31 32 76-13-20-27-34-43-42-6 18-15 30-27 36Z" fill="#151b20"/><path d="M-63 222c6-103 27-150 64-150 41 0 64 50 70 150Z" fill="#273943" stroke="#8fa5a8" stroke-width="5"/><path d="M-52 113h105M0 79v143" stroke="#ff6378" stroke-opacity=".6" stroke-width="5"/><rect x="38" y="108" width="38" height="83" rx="7" fill="#091116" stroke="#ff6378" stroke-width="5"/><path d="M47 128h20M47 148h20M47 168h20" stroke="#6ee7f2" stroke-width="4"/><rect x="-77" y="235" width="158" height="38" rx="8" fill="#071017" stroke="#ff6378"/><text x="2" y="261" text-anchor="middle" fill="#ff9aaa" font-family="Arial, Helvetica, sans-serif" font-size="18" font-weight="700">НИКА // ОХРАНА</text></g>
  <circle cx="74" cy="96" r="17" fill="#ff6378"/><circle cx="74" cy="96" r="92" fill="#ff6378" opacity=".08"/><path d="M0 0h1280v720H0Z" fill="url(#scan)"/><rect width="1280" height="720" filter="url(#noise)"/>
  <g font-family="Arial, Helvetica, sans-serif" font-size="19"><rect x="24" y="22" width="256" height="48" rx="8" fill="#061013" fill-opacity=".8" stroke="#6ee7f2" stroke-opacity=".55"/><text x="44" y="54" fill="#d8fbff" letter-spacing="3">СЕВЕР-7 // КАМ 02</text><rect x="1002" y="22" width="254" height="48" rx="8" fill="#061013" fill-opacity=".8" stroke="#f4b35d" stroke-opacity=".7"/><text x="1129" y="54" text-anchor="middle" fill="#f4d69f" letter-spacing="2">КАДР B // БЕЗ МЕТКИ</text><text x="30" y="690" fill="#9bc4c8">АВАРИЙНЫЙ СВЕТ • 2 ДУГИ</text><text x="1248" y="690" text-anchor="end" fill="#ff9aaa">НИКА • ФОРМА ОХРАНЫ • РАЦИЯ</text></g>
</svg>
