<svg xmlns="http://www.w3.org/2000/svg" viewBox="0 0 1440 900" role="img" aria-labelledby="title desc">
  <title id="title">Аппаратная радиостанции</title>
  <desc id="desc">Широкий вид аппаратной с микшерным пультом, катушечными магнитофонами, мониторами автоматизации, часами и сигнальными лампами.</desc>
  <defs><linearGradient id="wall" x2="0" y2="1"><stop stop-color="#172e37"/><stop offset="1" stop-color="#060b0f"/></linearGradient><linearGradient id="desk" x2="0" y2="1"><stop stop-color="#33444a"/><stop offset="1" stop-color="#10191d"/></linearGradient><radialGradient id="screen"><stop stop-color="#6ee7f2" stop-opacity=".32"/><stop offset="1" stop-color="#6ee7f2" stop-opacity="0"/></radialGradient><filter id="glow" x="-30%" y="-30%" width="160%" height="160%"><feGaussianBlur stdDeviation="7" result="g"/><feMerge><feMergeNode in="g"/><feMergeNode in="SourceGraphic"/></feMerge></filter><filter id="grain"><feTurbulence baseFrequency=".5" numOctaves="3" seed="31"/><feColorMatrix values="1 0 0 0 0 0 1 0 0 0 0 0 1 0 0 0 0 0 .06 0"/></filter></defs>
  <rect width="1440" height="900" fill="url(#wall)"/><path d="M0 677h1440v223H0Z" fill="#081014"/><path d="M0 677h1440M207 677 109 900M500 677l-36 223M940 677l37 223M1233 677l105 223" stroke="#607f85" stroke-opacity=".34" stroke-width="5"/>
  <circle cx="720" cy="360" r="450" fill="url(#screen)"/>
  <g transform="translate(64 156)"><rect width="334" height="418" rx="8" fill="#101a20" stroke="#6b858b" stroke-width="8"/><rect x="23" y="24" width="288" height="163" fill="#071114" stroke="#6ee7f2" stroke-width="4"/><path d="M43 112h26l11-34 16 69 20-101 18 66h24l15-20 16 20h29l15-50 16 79 19-29h44" stroke="#6ee7f2" stroke-width="5" fill="none" filter="url(#glow)"/><g transform="translate(26 220)"><circle cx="68" cy="68" r="61" fill="#1d292d" stroke="#abb9b5" stroke-width="7"/><circle cx="68" cy="68" r="22" fill="#080e11" stroke="#f4b35d" stroke-width="5"/><circle cx="237" cy="68" r="61" fill="#1d292d" stroke="#abb9b5" stroke-width="7"/><circle cx="237" cy="68" r="22" fill="#080e11" stroke="#f4b35d" stroke-width="5"/><path d="M68 7v122M7 68h122M237 7v122M176 68h122" stroke="#6e7f7e" stroke-width="5"/><path d="M127 68h49" stroke="#d7d0bb" stroke-width="7"/></g><rect x="32" y="372" width="270" height="24" fill="#131e21"/><g fill="#f4b35d"><circle cx="52" cy="384" r="6"/><circle cx="77" cy="384" r="6"/><circle cx="102" cy="384" r="6"/></g></g>
  <g transform="translate(1042 151)"><rect width="334" height="424" rx="8" fill="#101a20" stroke="#6b858b" stroke-width="8"/><rect x="24" y="24" width="286" height="222" fill="#071114" stroke="#6ee7f2" stroke-width="4"/><g font-family="Arial, Helvetica, sans-serif"><text x="43" y="58" fill="#9beaf1" font-size="18">АВТОМАТИКА ЭФИРА</text><text x="43" y="91" fill="#6f999e" font-size="15">КАНАЛ A</text><rect x="130" y="76" width="147" height="21" fill="#16404a"/><rect x="130" y="76" width="92" height="21" fill="#6ee7f2" opacity=".7"/><text x="43" y="128" fill="#6f999e" font-size="15">КАНАЛ B</text><rect x="130" y="113" width="147" height="21" fill="#3b3021"/><rect x="130" y="113" width="66" height="21" fill="#f4b35d" opacity=".8"/><path d="M43 164h234M43 188h172M43 212h216" stroke="#4f7980" stroke-width="5"/></g><g transform="translate(34 278)"><rect width="266" height="112" rx="10" fill="#18272b" stroke="#657e82" stroke-width="4"/><circle cx="48" cy="56" r="24" fill="#081014" stroke="#f4b35d" stroke-width="6"/><circle cx="112" cy="56" r="24" fill="#081014" stroke="#6ee7f2" stroke-width="6"/><circle cx="176" cy="56" r="24" fill="#081014" stroke="#ff6378" stroke-width="6"/><rect x="217" y="30" width="28" height="52" rx="5" fill="#26383d"/><path d="M231 69V45" stroke="#d7d0bb" stroke-width="6"/></g></g>
  <g transform="translate(425 471)"><path d="M0 0h592l85 205H-85Z" fill="url(#desk)" stroke="#7d989b" stroke-width="8"/><g transform="translate(32 35)"><g stroke="#658188" stroke-width="5"><path d="M0 0v126M44 0v126M88 0v126M132 0v126M176 0v126M220 0v126M264 0v126M308 0v126M352 0v126M396 0v126M440 0v126M484 0v126M528 0v126"/></g><g fill="#f4b35d"><circle cx="0" cy="32" r="8"/><circle cx="44" cy="53" r="8"/><circle cx="88" cy="22" r="8"/><circle cx="132" cy="67" r="8"/><circle cx="176" cy="42" r="8"/><circle cx="220" cy="75" r="8"/></g><g fill="#6ee7f2"><circle cx="264" cy="36" r="8"/><circle cx="308" cy="60" r="8"/><circle cx="352" cy="28" r="8"/><circle cx="396" cy="70" r="8"/><circle cx="440" cy="48" r="8"/><circle cx="484" cy="23" r="8"/><circle cx="528" cy="55" r="8"/></g></g><path d="M-45 205v201M637 205v201" stroke="#24343a" stroke-width="20"/></g>
  <g transform="translate(489 106)"><rect width="462" height="305" rx="10" fill="#0a1115" stroke="#77969b" stroke-width="8"/><rect x="23" y="24" width="416" height="257" fill="#07171c"/><g stroke="#6ee7f2" fill="none"><path d="M43 98h32l14-27 17 59 15-87 18 55h29l16-21 18 21h27l17-42 16 70 22-28h48l15-34 20 34h73" stroke-width="5"/><path d="M43 174h73l16-26 15 51 18-25h66l19-50 20 75 22-25h105" stroke-width="4" opacity=".7"/></g><path d="M42 227h370" stroke="#335f68" stroke-width="4"/><g fill="#f4b35d"><rect x="42" y="240" width="38" height="15"/><rect x="88" y="240" width="75" height="15"/><rect x="171" y="240" width="28" height="15"/><rect x="207" y="240" width="112" height="15"/><rect x="327" y="240" width="58" height="15"/></g></g>
  <g transform="translate(716 75)"><circle r="55" fill="#0a1114" stroke="#d6d0bb" stroke-width="6"/><path d="M0 0v-35M0 0l28 17" stroke="#d6d0bb" stroke-width="7" stroke-linecap="round"/><circle r="7" fill="#f4b35d"/></g>
  <g transform="translate(721 699)"><path d="M-80 0h160l52 150h-264Z" fill="#121b20" stroke="#566d72" stroke-width="7"/><path d="M0 0v-85" stroke="#566d72" stroke-width="20"/><path d="M-72 150h144M-55 150l-35 60M55 150l35 60" stroke="#566d72" stroke-width="12"/></g>
  <rect width="1440" height="900" filter="url(#grain)"/>
  <g font-family="Arial, Helvetica, sans-serif"><rect x="28" y="28" width="388" height="66" rx="8" fill="#061013" fill-opacity=".78" stroke="#6ee7f2" stroke-opacity=".55"/><text x="54" y="69" fill="#bdf4f7" font-size="24" letter-spacing="3">ФОТО 07-A // АППАРАТНАЯ</text><text x="1398" y="866" text-anchor="end" fill="#9ab5b8" font-size="19">ОСНОВНОЙ СВЕТ • ПУЛЬТ A</text></g>
</svg>
