<svg xmlns="http://www.w3.org/2000/svg" viewBox="0 0 1100 1400" role="img" aria-labelledby="title desc">
  <title id="title">Повреждённый технический документ</title>
  <desc id="desc">Пожелтевший акт настройки системы эфира с заломами, водяными пятнами, обгоревшим краем и частично закрытыми строками.</desc>
  <defs>
    <linearGradient id="paper" x2="1" y2="1"><stop stop-color="#ede7d2"/><stop offset=".6" stop-color="#d8cfb4"/><stop offset="1" stop-color="#b8a888"/></linearGradient>
    <radialGradient id="stain"><stop stop-color="#805a32" stop-opacity=".3"/><stop offset=".65" stop-color="#805a32" stop-opacity=".12"/><stop offset="1" stop-color="#805a32" stop-opacity="0"/></radialGradient>
    <filter id="rough"><feTurbulence baseFrequency=".045" numOctaves="4" seed="14" result="n"/><feDisplacementMap in="SourceGraphic" in2="n" scale="6"/><feColorMatrix values="1 0 0 0 0 0 1 0 0 0 0 0 1 0 0 0 0 0 .07 0"/></filter>
    <filter id="shadow" x="-20%" y="-20%" width="140%" height="140%"><feDropShadow dx="6" dy="12" stdDeviation="10" flood-color="#000" flood-opacity=".5"/></filter>
    <clipPath id="sheet"><path d="M116 59 950 72l10 76 31 38-20 91 19 62-18 78 23 85-25 69 17 88-16 71 25 91-24 76 20 95-29 69 25 104-35 61 17 108-89-7-70 17-83-14-77 20-78-18-91 13-72-21-85 14-83-24-75 12-7-93 18-69-20-83 15-91-18-76 21-80-16-79 19-86-15-73 17-83-18-78 18-83-21-79 19-76Z"/></clipPath>
  </defs>
  <rect width="1100" height="1400" fill="#071017"/>
  <path d="M116 59 950 72l10 76 31 38-20 91 19 62-18 78 23 85-25 69 17 88-16 71 25 91-24 76 20 95-29 69 25 104-35 61 17 108-89-7-70 17-83-14-77 20-78-18-91 13-72-21-85 14-83-24-75 12-7-93 18-69-20-83 15-91-18-76 21-80-16-79 19-86-15-73 17-83-18-78 18-83-21-79 19-76Z" fill="url(#paper)" filter="url(#shadow)"/>
  <g clip-path="url(#sheet)" font-family="Arial, Helvetica, sans-serif">
    <rect x="90" y="45" width="925" height="1310" fill="url(#paper)"/>
    <path d="M148 116h785M148 1288h785" stroke="#28383b" stroke-width="3"/>
    <g fill="#223335"><text x="155" y="169" font-size="22" letter-spacing="5">РАДИОСТАНЦИЯ «СЕВЕР-7»</text><text x="915" y="169" font-size="19" text-anchor="end">ФОРМА ТЕХ-12</text><text x="540" y="232" font-size="38" font-weight="700" text-anchor="middle">АКТ НАСТРОЙКИ ЭФИРНОЙ СИСТЕМЫ</text><text x="540" y="269" font-size="20" text-anchor="middle" letter-spacing="3">ВНУТРЕННИЙ ЭКЗЕМПЛЯР • НЕ ДЛЯ ПУБЛИКАЦИИ</text></g>
    <g fill="#334547" font-size="22"><text x="155" y="332">Объект:</text><text x="330" y="332" font-weight="700">аппаратная / студия эфира</text><text x="155" y="374">Контур:</text><text x="330" y="374" font-weight="700">автоматический запуск записей</text><text x="155" y="416">Проверка:</text><text x="330" y="416" font-weight="700">предпоказ, ночная программа</text></g>
    <path d="M155 455h770" stroke="#465b5d" stroke-width="2"/><text x="155" y="502" fill="#223335" font-size="23" font-weight="700">ПОРЯДОК СИГНАЛОВ</text>
    <g fill="#304244" font-size="21"><text x="178" y="551">1. Контрольный импульс поступает на основной канал A.</text><text x="178" y="592">2. Резервная запись хранится на локальном модуле B.</text><text x="178" y="633">3. Запуск по метке допускается только после проверки часов.</text><text x="178" y="674">4. Ручное переключение фиксируется в журнале аппаратной.</text></g>
    <rect x="156" y="724" width="768" height="250" fill="#d2c8aa" stroke="#455759" stroke-width="3"/>
    <g fill="#26383a" font-size="19"><text x="183" y="763" font-weight="700">КАНАЛ</text><text x="377" y="763" font-weight="700">МЕТКА</text><text x="561" y="763" font-weight="700">РЕЖИМ</text><text x="760" y="763" font-weight="700">СТАТУС</text><path d="M174 782h730M174 837h730M174 892h730M350 742v211M536 742v211M735 742v211" stroke="#566668" stroke-width="2"/><text x="183" y="817">A / основной</text><text x="377" y="817">пуск</text><text x="561" y="817">авто</text><text x="760" y="817">проверен</text><text x="183" y="872">B / резерв</text><text x="377" y="872">пауза</text><text x="561" y="872">ожидание</text><text x="760" y="872">проверен</text><text x="183" y="927">контроль</text><text x="377" y="927">синхр.</text><text x="561" y="927">ручной</text><text x="760" y="927">см. журнал</text></g>
    <text x="155" y="1030" fill="#223335" font-size="23" font-weight="700">ПРИМЕЧАНИЕ ТЕХНИКА</text><g fill="#344648" font-size="21"><text x="178" y="1076">При потере основного питания часы модуля продолжают ход</text><text x="178" y="1112">от внутренней батареи. Показания панели и записи камеры</text><text x="178" y="1148">могут расходиться; сверять по контрольному импульсу.</text></g>
    <path d="M157 1200h300M620 1200h300" stroke="#47595b" stroke-width="2"/><text x="157" y="1236" fill="#344648" font-size="18">подпись техника</text><text x="620" y="1236" fill="#344648" font-size="18">подпись ответственного</text><path d="M215 1179c61-47 124 60 202-8" stroke="#3d4b59" stroke-width="5" fill="none" opacity=".75"/>
    <g fill="#182225" opacity=".92"><rect x="632" y="1058" width="247" height="25" transform="rotate(-1 632 1058)"/><rect x="675" y="1096" width="205" height="25" transform="rotate(1 675 1096)"/></g>
    <circle cx="244" cy="835" r="180" fill="url(#stain)"/><circle cx="835" cy="1160" r="220" fill="url(#stain)"/><path d="M581 61c-35 210-13 424 18 625 31 201 37 418 4 653" stroke="#897c64" stroke-opacity=".35" stroke-width="9" fill="none"/><path d="M88 468c77 28 124 82 141 162" stroke="#9a7a4d" stroke-opacity=".35" stroke-width="24" fill="none"/>
    <path d="M899 52c26 53 39 101 24 157l48 42-23 80 33 55-27 89" fill="none" stroke="#392a22" stroke-width="39" opacity=".72"/>
    <g transform="translate(747 275) rotate(8)"><circle r="92" fill="none" stroke="#9d3e3d" stroke-width="9" opacity=".62"/><circle r="72" fill="none" stroke="#9d3e3d" stroke-width="3" opacity=".62"/><text y="-8" text-anchor="middle" fill="#9d3e3d" opacity=".68" font-size="18" font-weight="700">ТЕХОТДЕЛ</text><text y="20" text-anchor="middle" fill="#9d3e3d" opacity=".68" font-size="16">СЕВЕР-7</text></g>
    <rect x="90" y="45" width="925" height="1310" filter="url(#rough)" opacity=".45"/>
  </g>
  <g font-family="Arial, Helvetica, sans-serif"><rect x="28" y="25" width="313" height="50" rx="7" fill="#071017" stroke="#f4b35d"/><text x="49" y="57" fill="#f4d8a1" font-size="19" letter-spacing="2">УЛИКА 12 // ПОВРЕЖДЕНО</text></g>
</svg>
