<svg xmlns="http://www.w3.org/2000/svg" viewBox="0 0 1440 720" role="img" aria-labelledby="title desc">
  <title id="title">Полуночный протокол — логотип игры</title>
  <desc id="desc">Неоновый логотип на фоне ночной радиостанции, радиоволны и янтарная линия эфира.</desc>
  <defs>
    <linearGradient id="bg" x1="0" y1="0" x2="1" y2="1"><stop stop-color="#061018"/><stop offset=".58" stop-color="#0c2029"/><stop offset="1" stop-color="#05090e"/></linearGradient>
    <linearGradient id="cyan" x1="0" y1="0" x2="1" y2="0"><stop stop-color="#d8fbff"/><stop offset=".45" stop-color="#6ee7f2"/><stop offset="1" stop-color="#1f8fa2"/></linearGradient>
    <linearGradient id="amber" x1="0" y1="0" x2="1" y2="0"><stop stop-color="#fff0be"/><stop offset=".5" stop-color="#f4b35d"/><stop offset="1" stop-color="#8c5128"/></linearGradient>
    <filter id="glow" x="-30%" y="-50%" width="160%" height="200%"><feGaussianBlur stdDeviation="7" result="b"/><feMerge><feMergeNode in="b"/><feMergeNode in="SourceGraphic"/></feMerge></filter>
    <pattern id="grid" width="48" height="48" patternUnits="userSpaceOnUse"><path d="M48 0H0V48" fill="none" stroke="#85cfd8" stroke-opacity=".08"/></pattern>
    <filter id="grain"><feTurbulence baseFrequency=".74" numOctaves="2" seed="13" type="fractalNoise"/><feColorMatrix values="1 0 0 0 0  0 1 0 0 0  0 0 1 0 0  0 0 0 .055 0"/></filter>
  </defs>
  <rect width="1440" height="720" rx="34" fill="url(#bg)"/>
  <rect x="18" y="18" width="1404" height="684" rx="25" fill="url(#grid)" stroke="#6ee7f2" stroke-opacity=".28" stroke-width="2"/>
  <g opacity=".58" stroke="#6ee7f2" fill="none">
    <path d="M86 138h150l26-39 34 76 30-42h154"/>
    <path d="M960 145h130c50 0 72-33 90-68 19 35 40 68 93 68h85"/>
    <circle cx="1200" cy="102" r="70" opacity=".18"/><circle cx="1200" cy="102" r="44" opacity=".22"/>
  </g>
  <g transform="translate(82 78)">
    <path d="M80 188 147 18l67 170M108 118h79M130 72h34" stroke="url(#cyan)" stroke-width="8" fill="none" stroke-linejoin="round" filter="url(#glow)"/>
    <path d="M147 18v-34M111 188h72M60 188h174" stroke="#d8fbff" stroke-width="5"/>
    <path d="M33 50c-43 45-43 97 0 142M260 50c43 45 43 97 0 142M8 28c-67 66-67 139 0 198M285 28c67 66 67 139 0 198" stroke="#6ee7f2" stroke-opacity=".65" stroke-width="5" fill="none"/>
  </g>
  <g transform="translate(395 176)">
    <text x="0" y="0" fill="#b9d8dd" font-family="Arial, Helvetica, sans-serif" font-size="25" letter-spacing="9">СЛЕДСТВЕННЫЙ ТЕРМИНАЛ // СЕВЕР-7</text>
    <text x="0" y="112" fill="url(#cyan)" font-family="Arial, Helvetica, sans-serif" font-weight="800" font-size="91" letter-spacing="3" filter="url(#glow)">ПОЛУНОЧНЫЙ</text>
    <text x="0" y="204" fill="#f4f7f2" font-family="Arial, Helvetica, sans-serif" font-weight="800" font-size="91" letter-spacing="10">ПРОТОКОЛ</text>
    <rect y="236" width="862" height="3" fill="url(#amber)"/>
    <text x="4" y="288" fill="#f4b35d" font-family="Arial, Helvetica, sans-serif" font-size="31" letter-spacing="5">ДЕЛО О ПОСЛЕДНЕМ ЭФИРЕ</text>
  </g>
  <g transform="translate(85 588)">
    <path d="M0 0h74l13-22 13 44 16-61 15 39h40l13-13 13 13h88l16-33 17 58 18-25h94l20-15 21 15h95l13-41 19 62 18-21h145l20-31 19 31h218l14-19 15 19h118" stroke="url(#amber)" stroke-width="4" fill="none" filter="url(#glow)"/>
    <text x="0" y="66" fill="#91a9ad" font-family="Arial, Helvetica, sans-serif" font-size="22" letter-spacing="2">СЕМЬ МИНУТ ТИШИНЫ • ПЯТЬ ПОДОЗРЕВАЕМЫХ • ОДИН ЗАПОЗДАЛЫЙ ГОЛОС</text>
  </g>
  <rect width="1440" height="720" rx="34" filter="url(#grain)" opacity=".5"/>
</svg>
