<svg xmlns="http://www.w3.org/2000/svg" viewBox="0 0 1600 1050" role="img" aria-labelledby="title desc">
  <title id="title">Радиооборудование и звуковые носители</title>
  <desc id="desc">Иллюстрированный набор из катушечного магнитофона, кассеты, микрофона, осциллографа, микшерных каналов и радиошкалы.</desc>
  <defs>
    <linearGradient id="metal" x2="1" y2="1"><stop stop-color="#3d5157"/><stop offset=".45" stop-color="#1b2a2f"/><stop offset="1" stop-color="#0b1318"/></linearGradient>
    <linearGradient id="amber" x2="0" y2="1"><stop stop-color="#fff0b2"/><stop offset="1" stop-color="#b96c2f"/></linearGradient>
    <filter id="glow" x="-30%" y="-30%" width="160%" height="160%"><feGaussianBlur stdDeviation="6" result="g"/><feMerge><feMergeNode in="g"/><feMergeNode in="SourceGraphic"/></feMerge></filter>
    <filter id="grain"><feTurbulence baseFrequency=".6" numOctaves="2" seed="38"/><feColorMatrix values="1 0 0 0 0 0 1 0 0 0 0 0 1 0 0 0 0 0 .055 0"/></filter>
    <pattern id="grid" width="30" height="30" patternUnits="userSpaceOnUse"><path d="M30 0H0V30" fill="none" stroke="#6ee7f2" stroke-opacity=".07"/></pattern>
  </defs>
  <rect width="1600" height="1050" fill="#071017"/><rect x="24" y="24" width="1552" height="1002" rx="20" fill="url(#grid)" stroke="#6ee7f2" stroke-opacity=".25" stroke-width="2"/>
  <g font-family="Arial, Helvetica, sans-serif"><text x="66" y="82" fill="#eef7f6" font-size="32" font-weight="700" letter-spacing="5">ТЕХНИЧЕСКИЙ АРХИВ // АУДИО</text><text x="1535" y="82" fill="#f4b35d" font-size="18" text-anchor="end">КОМПЛЕКТ ОБОРУДОВАНИЯ 7-R</text></g>
  <g transform="translate(72 132)">
    <rect width="685" height="460" rx="18" fill="url(#metal)" stroke="#78969b" stroke-width="7"/><rect x="24" y="22" width="637" height="416" rx="10" fill="#111d22" stroke="#3e5a60" stroke-width="4"/>
    <g transform="translate(63 66)"><circle cx="133" cy="133" r="119" fill="#26363a" stroke="#b6c5c2" stroke-width="9"/><circle cx="133" cy="133" r="40" fill="#070d10" stroke="#f4b35d" stroke-width="7"/><path d="M133 14v238M14 133h238M49 49l168 168M217 49 49 217" stroke="#6d8282" stroke-width="6"/><circle cx="424" cy="133" r="119" fill="#26363a" stroke="#b6c5c2" stroke-width="9"/><circle cx="424" cy="133" r="40" fill="#070d10" stroke="#f4b35d" stroke-width="7"/><path d="M424 14v238M305 133h238M340 49l168 168M508 49 340 217" stroke="#6d8282" stroke-width="6"/><path d="M171 148c75 42 129 39 214-2" stroke="#d7d0bb" stroke-width="7" fill="none"/><circle cx="278" cy="172" r="16" fill="#d7d0bb"/></g>
    <g transform="translate(68 346)"><rect width="548" height="67" rx="9" fill="#0a1216" stroke="#607a80" stroke-width="4"/><circle cx="34" cy="34" r="13" fill="#79d6b4"/><circle cx="78" cy="34" r="13" fill="#f4b35d"/><circle cx="122" cy="34" r="13" fill="#ff6378"/><rect x="175" y="20" width="212" height="28" rx="4" fill="#1b3b41"/><path d="M187 34h187" stroke="#6ee7f2" stroke-width="5"/><circle cx="446" cy="34" r="23" fill="#1c2b31" stroke="#d7d0bb" stroke-width="5"/><circle cx="506" cy="34" r="23" fill="#1c2b31" stroke="#d7d0bb" stroke-width="5"/></g>
    <text x="37" y="33" fill="#9db5b8" font-family="Arial, Helvetica, sans-serif" font-size="16">МАГНИТОФОН R-440 // 19 СМ/С</text>
  </g>
  <g transform="translate(811 132)">
    <rect width="717" height="278" rx="18" fill="url(#metal)" stroke="#78969b" stroke-width="7"/><rect x="25" y="24" width="667" height="230" rx="9" fill="#071216" stroke="#35575f" stroke-width="4"/>
    <g stroke="#315861" stroke-width="2"><path d="M53 63h611M53 103h611M53 143h611M53 183h611M113 44v180M173 44v180M233 44v180M293 44v180M353 44v180M413 44v180M473 44v180M533 44v180M593 44v180M653 44v180"/></g>
    <path d="M52 145h33l14-34 16 70 18-104 20 68h36l14-20 18 20h32l20-53 18 88 23-35h38l19-44 19 75 24-31h55l16-28 19 28h34l18-64 23 100 26-36h48" fill="none" stroke="#6ee7f2" stroke-width="6" filter="url(#glow)"/>
    <g fill="#f4b35d" font-family="Arial, Helvetica, sans-serif" font-size="15"><text x="54" y="242">0:00</text><text x="336" y="242">0:15</text><text x="635" y="242">0:30</text></g>
  </g>
  <g transform="translate(811 450)">
    <rect width="330" height="282" rx="18" fill="url(#metal)" stroke="#78969b" stroke-width="7"/><path d="M48 67h234l27 170-32 22H53l-32-22Z" fill="#d3cab3" stroke="#f4e3b5" stroke-width="5"/><rect x="72" y="91" width="186" height="76" rx="10" fill="#10191c"/><circle cx="113" cy="129" r="29" fill="#1b292d" stroke="#85989a" stroke-width="5"/><circle cx="217" cy="129" r="29" fill="#1b292d" stroke="#85989a" stroke-width="5"/><circle cx="113" cy="129" r="10" fill="#d7d0bb"/><circle cx="217" cy="129" r="10" fill="#d7d0bb"/><path d="M142 129h46" stroke="#f4b35d" stroke-width="6"/><rect x="89" y="190" width="152" height="43" fill="#b7aa8c" stroke="#655b4a" stroke-width="4"/><path d="M106 211h118" stroke="#314649" stroke-width="4"/><text x="165" y="54" text-anchor="middle" fill="#b8cbcd" font-family="Arial, Helvetica, sans-serif" font-size="16">КАССЕТА C-60 // КОПИЯ</text>
  </g>
  <g transform="translate(1188 450)">
    <rect width="340" height="282" rx="18" fill="url(#metal)" stroke="#78969b" stroke-width="7"/><g transform="translate(75 28)"><rect x="47" y="0" width="96" height="150" rx="47" fill="#15252b" stroke="#d4dfdd" stroke-width="7"/><path d="M69 35h52M63 63h64M63 91h64M69 119h52" stroke="#6ee7f2" stroke-width="6"/><path d="M95 150v52M43 202h104" stroke="#d4dfdd" stroke-width="9" stroke-linecap="round"/><path d="M25 38c-30 44-30 89 0 133M165 38c30 44 30 89 0 133" stroke="#f4b35d" stroke-opacity=".8" stroke-width="5" fill="none"/></g>
  </g>
  <g transform="translate(72 635)">
    <rect width="685" height="330" rx="18" fill="url(#metal)" stroke="#78969b" stroke-width="7"/>
    <g transform="translate(38 42)"><g fill="#0a1317" stroke="#6d898e" stroke-width="4"><rect width="90" height="228" rx="7"/><rect x="104" width="90" height="228" rx="7"/><rect x="208" width="90" height="228" rx="7"/><rect x="312" width="90" height="228" rx="7"/><rect x="416" width="90" height="228" rx="7"/><rect x="520" width="90" height="228" rx="7"/></g><g stroke="#d6d0bb" stroke-width="7"><path d="M45 40v142M149 40v142M253 40v142M357 40v142M461 40v142M565 40v142"/></g><g fill="#f4b35d"><circle cx="45" cy="67" r="11"/><circle cx="149" cy="114" r="11"/><circle cx="253" cy="83" r="11"/><circle cx="357" cy="145" r="11"/><circle cx="461" cy="96" r="11"/><circle cx="565" cy="52" r="11"/></g><g fill="#6ee7f2"><circle cx="45" cy="205" r="9"/><circle cx="149" cy="205" r="9"/><circle cx="253" cy="205" r="9"/><circle cx="357" cy="205" r="9"/><circle cx="461" cy="205" r="9"/><circle cx="565" cy="205" r="9"/></g></g>
    <text x="35" y="309" fill="#a9bec1" font-family="Arial, Helvetica, sans-serif" font-size="17">МИКШЕРНЫЕ КАНАЛЫ 1–6 // РУЧНАЯ ПАНЕЛЬ</text>
  </g>
  <g transform="translate(811 772)">
    <rect width="717" height="193" rx="18" fill="url(#metal)" stroke="#78969b" stroke-width="7"/><path d="M38 54h641v72H38Z" fill="#1c241f" stroke="#f4b35d" stroke-width="4"/><path d="M68 112 82 69M131 112l14-51M194 112l11-38M257 112l15-54M320 112l13-42M383 112l16-57M446 112l12-36M509 112l17-55M572 112l13-42M635 112l12-47" stroke="#f4d99e" stroke-width="4"/><path d="M91 63v54M217 63v54M343 63v54M469 63v54M595 63v54" stroke="#b1aa8d" stroke-width="3"/><path d="M76 144h559" stroke="#6ee7f2" stroke-width="5"/><circle cx="447" cy="144" r="12" fill="#ff6378"/><g fill="#d5d0b7" font-family="Arial, Helvetica, sans-serif" font-size="15"><text x="62" y="178">88</text><text x="183" y="178">92</text><text x="310" y="178">96</text><text x="434" y="178">100</text><text x="557" y="178">104</text><text x="651" y="178">108 МГц</text></g>
  </g>
  <rect width="1600" height="1050" filter="url(#grain)"/>
</svg>
