<svg xmlns="http://www.w3.org/2000/svg" viewBox="0 0 1600 900" role="img" aria-labelledby="title desc">
  <title id="title">Финальная иллюстрация разоблачения</title>
  <desc id="desc">Анонимный силуэт у радиопульта окружён сходящимися линиями улик; за окном рассвет над башней «Север-7». Иллюстрация не указывает личность преступника.</desc>
  <defs>
    <linearGradient id="bg" x2="1" y2="1"><stop stop-color="#05090d"/><stop offset=".55" stop-color="#10232a"/><stop offset="1" stop-color="#1d130f"/></linearGradient>
    <linearGradient id="dawn" x2="0" y2="1"><stop stop-color="#263f4d"/><stop offset=".55" stop-color="#a45e44"/><stop offset="1" stop-color="#f4b35d"/></linearGradient>
    <linearGradient id="floor" x2="0" y2="1"><stop stop-color="#17242a"/><stop offset="1" stop-color="#05080b"/></linearGradient>
    <radialGradient id="spot"><stop stop-color="#6ee7f2" stop-opacity=".33"/><stop offset="1" stop-color="#6ee7f2" stop-opacity="0"/></radialGradient>
    <filter id="glow" x="-40%" y="-40%" width="180%" height="180%"><feGaussianBlur stdDeviation="8" result="g"/><feMerge><feMergeNode in="g"/><feMergeNode in="SourceGraphic"/></feMerge></filter>
    <filter id="grain"><feTurbulence baseFrequency=".52" numOctaves="3" seed="44"/><feColorMatrix values="1 0 0 0 0 0 1 0 0 0 0 0 1 0 0 0 0 0 .07 0"/></filter>
    <clipPath id="window"><path d="M1015 67h505v536h-505Z"/></clipPath>
  </defs>
  <rect width="1600" height="900" fill="url(#bg)"/>
  <g clip-path="url(#window)"><rect x="1015" y="67" width="505" height="536" fill="url(#dawn)"/><path d="M1015 441c95-52 159-37 224-15 88 29 176-18 281-5v182h-505Z" fill="#121c23"/><path d="M1264 466 1330 178l65 288M1294 348h72M1310 281h39M1329 178v-74" fill="none" stroke="#071017" stroke-width="14"/><path d="M1268 149c-92 66-92 143 0 209M1390 149c92 66 92 143 0 209M1221 112c-140 92-140 200 0 292M1437 112c140 92 140 200 0 292" stroke="#f4cf8f" stroke-opacity=".28" stroke-width="6" fill="none"/></g>
  <path d="M1015 67h505v536h-505ZM1183 67v536M1352 67v536M1015 247h505M1015 426h505" fill="none" stroke="#79949a" stroke-width="9"/>
  <path d="M0 628h1600v272H0Z" fill="url(#floor)"/><path d="M0 628h1600M233 628 105 900M565 628l-35 272M1035 628l35 272M1368 628l129 272" stroke="#638087" stroke-opacity=".34" stroke-width="5"/>
  <circle cx="751" cy="395" r="480" fill="url(#spot)"/>
  <g opacity=".88">
    <path d="M207 205 608 364M197 460l411-46M313 711l319-205M1262 708 870 505M1168 194 871 348" stroke="#ff6378" stroke-width="4" stroke-dasharray="13 11"/>
    <g fill="#101b21" stroke-width="4"><rect x="78" y="115" width="265" height="154" rx="13" stroke="#6ee7f2"/><rect x="66" y="385" width="280" height="161" rx="13" stroke="#f4b35d"/><rect x="144" y="683" width="287" height="147" rx="13" stroke="#79d6b4"/><rect x="1117" y="650" width="332" height="165" rx="13" stroke="#aa8bff"/><rect x="1061" y="111" width="286" height="151" rx="13" stroke="#ff6378"/></g>
    <g font-family="Arial, Helvetica, sans-serif"><text x="102" y="151" fill="#6ee7f2" font-size="16" letter-spacing="3">КАМЕРЫ</text><path d="M103 181h212M103 207h156M103 233h191" stroke="#6f969c" stroke-width="6"/><text x="91" y="422" fill="#f4b35d" font-size="16" letter-spacing="3">ЖУРНАЛ ДОСТУПА</text><path d="M92 453h226M92 480h181M92 507h209" stroke="#937f58" stroke-width="6"/><text x="169" y="720" fill="#79d6b4" font-size="16" letter-spacing="3">РАЗОРВАННЫЙ ДОКУМЕНТ</text><path d="M169 750h232M169 777h170M169 804h211" stroke="#698f82" stroke-width="6"/><text x="1142" y="688" fill="#aa8bff" font-size="16" letter-spacing="3">ПОКАЗАНИЯ</text><path d="M1142 719h276M1142 746h218M1142 773h252" stroke="#776b99" stroke-width="6"/><text x="1085" y="148" fill="#ff6378" font-size="16" letter-spacing="3">ПОСЛЕДНИЙ ЭФИР</text><path d="M1085 180h33l12-25 14 51 16-78 18 52h28l14-18 16 18h25l18-38 18 64 19-26h40" stroke="#ff6378" stroke-width="5" fill="none"/></g>
  </g>
  <g transform="translate(739 151)">
    <path d="M-93 481c6-168 43-272 105-307-62-20-100-77-96-149 4-85 53-137 126-137 75 0 125 55 126 142 1 69-34 122-93 142 67 36 108 138 118 309Z" fill="#071017" stroke="#6ee7f2" stroke-opacity=".56" stroke-width="7"/>
    <path d="M-68 17c27-86 167-100 209-7-24-35-58-51-103-48-44 2-79 21-106 55Z" fill="#14282f"/>
    <path d="M-7 75h93M-8 110h94" stroke="#172c33" stroke-width="13" stroke-linecap="round"/>
    <path d="M-8 174h93" stroke="#f4b35d" stroke-width="5" opacity=".55"/>
    <path d="M-82 306h260M-91 353h278M-93 402h284" stroke="#0f2026" stroke-width="9"/>
  </g>
  <g transform="translate(475 611)"><path d="M0 0h570l82 198H-82Z" fill="#17272d" stroke="#708b90" stroke-width="8"/><g stroke="#607d83" stroke-width="5"><path d="M38 36v107M92 36v107M146 36v107M200 36v107M254 36v107M308 36v107M362 36v107M416 36v107M470 36v107M524 36v107"/></g><g fill="#f4b35d"><circle cx="38" cy="67" r="9"/><circle cx="92" cy="91" r="9"/><circle cx="146" cy="54" r="9"/><circle cx="200" cy="107" r="9"/><circle cx="254" cy="77" r="9"/></g><g fill="#6ee7f2"><circle cx="308" cy="58" r="9"/><circle cx="362" cy="100" r="9"/><circle cx="416" cy="73" r="9"/><circle cx="470" cy="46" r="9"/><circle cx="524" cy="94" r="9"/></g></g>
  <path d="M518 119h399" stroke="#6ee7f2" stroke-width="3" opacity=".55"/><text x="718" y="94" text-anchor="middle" fill="#d9f7f7" font-family="Arial, Helvetica, sans-serif" font-size="21" letter-spacing="8">ВСЕ ФАКТЫ СХОДЯТСЯ</text>
  <g font-family="Arial, Helvetica, sans-serif"><text x="55" y="860" fill="#f4b35d" font-size="24" letter-spacing="5">ПОЛУНОЧНЫЙ ПРОТОКОЛ // ФИНАЛЬНОЕ ДОСЬЕ</text><text x="1545" y="860" text-anchor="end" fill="#b5c8c9" font-size="19">ЛИЧНОСТЬ ОТКРЫВАЕТСЯ ПОСЛЕ ВЕРНОЙ ВЕРСИИ</text></g>
  <rect width="1600" height="900" filter="url(#grain)"/>
</svg>
