<svg xmlns="http://www.w3.org/2000/svg" viewBox="0 0 1600 640" role="img" aria-labelledby="title desc">
  <title id="title">Иконки разделов следственного терминала</title>
  <desc id="desc">Двенадцать подписанных высококонтрастных иконок: дело, подозреваемые, план, камеры, эфир, документы, пропуска, хронология, улики, блокнот, подсказки и настройки.</desc>
  <defs>
    <linearGradient id="tile" x2="1" y2="1"><stop stop-color="#122831"/><stop offset="1" stop-color="#091117"/></linearGradient>
    <filter id="glow" x="-40%" y="-40%" width="180%" height="180%"><feGaussianBlur stdDeviation="4" result="g"/><feMerge><feMergeNode in="g"/><feMergeNode in="SourceGraphic"/></feMerge></filter>
    <g id="base"><rect width="226" height="236" rx="22" fill="url(#tile)" stroke="#6ee7f2" stroke-opacity=".34" stroke-width="3"/><path d="M18 53V18h35M173 18h35v35M208 183v35h-35M53 218H18v-35" fill="none" stroke="#6ee7f2" stroke-opacity=".52" stroke-width="4"/></g>
  </defs>
  <rect width="1600" height="640" fill="#071017"/>
  <g transform="translate(42 46)" font-family="Arial, Helvetica, sans-serif" text-anchor="middle">
    <g transform="translate(0 0)"><use href="#base"/><g transform="translate(113 99)" fill="none" stroke="#6ee7f2" stroke-width="8" stroke-linecap="round" stroke-linejoin="round" filter="url(#glow)"><path d="M-49-49h68l30 30v82h-98Z"/><path d="M19-49v30h30M-26 10h51M-26 37h39"/></g><text x="113" y="202" fill="#eaf5f4" font-size="18" letter-spacing="2">ДЕЛО</text></g>
    <g transform="translate(254 0)"><use href="#base"/><g transform="translate(113 99)" fill="none" stroke="#aa8bff" stroke-width="8" stroke-linecap="round"><circle cy="-27" r="29"/><path d="M-53 62c5-54 24-78 53-78s48 24 53 78"/><circle cx="-55" cy="-7" r="19"/><circle cx="55" cy="-7" r="19"/></g><text x="113" y="202" fill="#eaf5f4" font-size="18" letter-spacing="2">ЛЮДИ</text></g>
    <g transform="translate(508 0)"><use href="#base"/><g transform="translate(113 99)" fill="none" stroke="#79d6b4" stroke-width="8" stroke-linejoin="round"><path d="m-59-48 40-18 38 18 40-18V54L19 70l-38-18-40 18Z"/><path d="M-19-66V52M19-48V70"/><circle cx="18" cy="-7" r="9" fill="#79d6b4"/></g><text x="113" y="202" fill="#eaf5f4" font-size="18" letter-spacing="2">ПЛАН</text></g>
    <g transform="translate(762 0)"><use href="#base"/><g transform="translate(113 99)" fill="none" stroke="#ff6378" stroke-width="8" stroke-linecap="round" stroke-linejoin="round"><rect x="-66" y="-43" width="102" height="81" rx="12"/><path d="m36-20 36-24v83L36 17Z"/><circle cx="-15" cy="-3" r="21"/></g><text x="113" y="202" fill="#eaf5f4" font-size="18" letter-spacing="2">КАМЕРЫ</text></g>
    <g transform="translate(1016 0)"><use href="#base"/><g transform="translate(113 99)" fill="none" stroke="#f4b35d" stroke-width="8" stroke-linecap="round"><path d="M-70 0h18l12-29 16 59 18-83 17 53h24l13-18 15 18h27"/><path d="M0-60v20M0 40v20"/></g><text x="113" y="202" fill="#eaf5f4" font-size="18" letter-spacing="2">ЭФИР</text></g>
    <g transform="translate(1270 0)"><use href="#base"/><g transform="translate(113 99)" fill="none" stroke="#d7d0bb" stroke-width="8" stroke-linecap="round" stroke-linejoin="round"><path d="M-51-60h75l27 27v94h-102Z"/><path d="M24-60v27h27M-27-4h52M-27 23h52M-27 50h34"/></g><text x="113" y="202" fill="#eaf5f4" font-size="18" letter-spacing="2">ДОКУМЕНТЫ</text></g>
    <g transform="translate(0 270)"><use href="#base"/><g transform="translate(113 99)" fill="none" stroke="#f4b35d" stroke-width="8" stroke-linejoin="round"><rect x="-66" y="-47" width="132" height="94" rx="13"/><circle cx="-32" cy="-11" r="18"/><path d="M-56 33c4-28 13-39 25-39 13 0 22 11 25 39M9-19h41M9 5h41M9 29h28"/></g><text x="113" y="202" fill="#eaf5f4" font-size="18" letter-spacing="2">ПРОПУСКА</text></g>
    <g transform="translate(254 270)"><use href="#base"/><g transform="translate(113 99)" fill="none" stroke="#6ee7f2" stroke-width="8" stroke-linecap="round"><circle r="61"/><path d="M0-34V5l31 20"/><path d="M0-61v-13M61 0h13M0 61v13M-61 0h-13"/></g><text x="113" y="202" fill="#eaf5f4" font-size="18" letter-spacing="2">ВРЕМЯ</text></g>
    <g transform="translate(508 270)"><use href="#base"/><g transform="translate(113 99)" fill="none" stroke="#ff6378" stroke-width="8" stroke-linecap="round" stroke-linejoin="round"><circle cx="-27" cy="-23" r="32"/><path d="m-4 0 49 49M-60 52h112M-60 52l17-33M52 52 33 20"/><circle cx="58" cy="-19" r="18"/></g><text x="113" y="202" fill="#eaf5f4" font-size="18" letter-spacing="2">УЛИКИ</text></g>
    <g transform="translate(762 270)"><use href="#base"/><g transform="translate(113 99)" fill="none" stroke="#79d6b4" stroke-width="8" stroke-linecap="round" stroke-linejoin="round"><path d="M-57-53h90l24 24v93h-114Z"/><path d="M33-53v24h24M-31-11h62M-31 17h62M-31 45h42"/><path d="m44 36 24 24"/></g><text x="113" y="202" fill="#eaf5f4" font-size="18" letter-spacing="2">БЛОКНОТ</text></g>
    <g transform="translate(1016 270)"><use href="#base"/><g transform="translate(113 99)" fill="none" stroke="#f4b35d" stroke-width="8" stroke-linecap="round" stroke-linejoin="round"><path d="M-46-14a48 48 0 1 1 79 36c-14 12-18 19-18 31h-30c0-20 7-31 23-44 20-16 9-49-17-49-17 0-27 11-31 26Z"/><path d="M-14 72h30"/></g><text x="113" y="202" fill="#eaf5f4" font-size="18" letter-spacing="2">ПОДСКАЗКИ</text></g>
    <g transform="translate(1270 270)"><use href="#base"/><g transform="translate(113 99)" fill="none" stroke="#aa8bff" stroke-width="8" stroke-linecap="round" stroke-linejoin="round"><circle r="28"/><path d="M0-67v18M0 49v18M-67 0h18M49 0h18M-47-47l13 13M34 34l13 13M47-47 34-34M-34 34l-13 13"/><circle r="54" stroke-dasharray="18 12"/></g><text x="113" y="202" fill="#eaf5f4" font-size="18" letter-spacing="2">НАСТРОЙКИ</text></g>
  </g>
</svg>
