<svg xmlns="http://www.w3.org/2000/svg" viewBox="0 0 800 1000" role="img" aria-labelledby="title desc">
  <title id="title">Роман Ветров</title><desc id="desc">Стилизованный портрет представителя инвестора Романа Ветрова в строгом костюме, очках и с папкой документов.</desc>
  <defs><linearGradient id="bg" x2="1" y2="1"><stop stop-color="#263139"/><stop offset="1" stop-color="#070a0f"/></linearGradient><linearGradient id="skin" x2="1" y2="1"><stop stop-color="#e1b28e"/><stop offset="1" stop-color="#875a48"/></linearGradient><linearGradient id="suit" x2="1" y2="1"><stop stop-color="#34424f"/><stop offset="1" stop-color="#111722"/></linearGradient><filter id="grain"><feTurbulence baseFrequency=".68" numOctaves="3" seed="15"/><feColorMatrix values="1 0 0 0 0 0 1 0 0 0 0 0 1 0 0 0 0 0 .055 0"/></filter><clipPath id="c"><rect x="42" y="42" width="716" height="780" rx="28"/></clipPath></defs>
  <rect width="800" height="1000" rx="34" fill="#071017"/><rect x="22" y="22" width="756" height="956" rx="28" fill="none" stroke="#f4b35d" stroke-opacity=".48" stroke-width="2"/>
  <g clip-path="url(#c)"><rect x="42" y="42" width="716" height="780" fill="url(#bg)"/><path d="M42 142h716M42 249h716M42 356h716M42 463h716" stroke="#f4b35d" stroke-opacity=".12"/><path d="M562 42v780M615 42v780M668 42v780M721 42v780" stroke="#f4b35d" stroke-opacity=".13"/><path d="M139 847c24-190 119-287 270-289 155-2 251 97 269 289Z" fill="url(#suit)"/><path d="m291 590 110 85 105-85 69 82-86 175H314l-91-175Z" fill="#eef0e8"/><path d="m398 675 43 0 31 172h-97Z" fill="#8e4a42"/><path d="m224 672 114 175H140c21-94 48-144 84-175ZM576 672 477 847h201c-14-84-48-143-102-175Z" fill="#17212d"/>
    <path d="M286 287c4-134 67-201 160-200 101 1 161 76 154 218l-15 149c-9 94-72 157-149 157-79 0-142-68-151-162Z" fill="url(#skin)"/><path d="M275 291c-11-138 48-221 169-224 111-3 172 72 166 202-43-10-85-52-106-107-55 35-126 56-216 51Z" fill="#42352f"/><path d="M289 209c-29 45-36 112-9 190l20-89-8-106ZM592 184c31 62 27 140-5 215l-10-97 5-122Z" fill="#42352f"/>
    <path d="M335 354c24-12 52-11 75 4M471 355c24-11 50-8 71 6" stroke="#533a35" stroke-width="9" stroke-linecap="round"/><ellipse cx="379" cy="380" rx="8" ry="11" fill="#080e13"/><ellipse cx="510" cy="381" rx="8" ry="11" fill="#080e13"/><path d="M441 386c-3 34-8 54-19 71 14 8 29 9 43 2" stroke="#754d42" stroke-width="8" fill="none" stroke-linecap="round"/><path d="M372 493c43 18 89 17 133-5" stroke="#6f3d3b" stroke-width="8" fill="none" stroke-linecap="round"/>
    <g fill="none" stroke="#d8eff0" stroke-width="7"><rect x="318" y="350" width="111" height="71" rx="18"/><rect x="462" y="350" width="111" height="71" rx="18"/><path d="M429 373h33M318 367l-45-15M573 367l34-13"/></g><path d="M336 366h71M478 366h72" stroke="#6ee7f2" stroke-opacity=".65" stroke-width="5"/>
    <g transform="translate(74 583) rotate(5)"><rect width="154" height="218" rx="12" fill="#2b201b" stroke="#f4b35d" stroke-width="6"/><path d="M17 47h120M17 78h90M17 109h112M17 140h73M17 171h118" stroke="#d7d0bb" stroke-opacity=".72" stroke-width="5"/><circle cx="120" cy="187" r="20" fill="#a84c43" opacity=".8"/></g><rect x="42" y="42" width="716" height="780" filter="url(#grain)"/></g>
  <g font-family="Arial, Helvetica, sans-serif"><text x="64" y="875" fill="#f4b35d" font-size="22" letter-spacing="4">ПОДОЗРЕВАЕМЫЙ 04 // ИНВЕСТОР</text><text x="64" y="925" fill="#eef7f6" font-size="39" font-weight="700">РОМАН ВЕТРОВ</text><text x="64" y="959" fill="#9bb5ba" font-size="20">финансирование • договоры • интересы проекта</text></g>
</svg>
