<svg xmlns="http://www.w3.org/2000/svg" viewBox="0 0 800 1000" role="img" aria-labelledby="title desc">
  <title id="title">Ника Соколова</title><desc id="desc">Стилизованный портрет руководителя охраны Ники Соколовой в форме, с рацией и служебным жетоном.</desc>
  <defs><linearGradient id="bg" x2="1" y2="1"><stop stop-color="#24343c"/><stop offset="1" stop-color="#070b0f"/></linearGradient><linearGradient id="skin" x2="1" y2="1"><stop stop-color="#d7a681"/><stop offset="1" stop-color="#75483a"/></linearGradient><linearGradient id="uniform" x2="1" y2="1"><stop stop-color="#3a4c55"/><stop offset="1" stop-color="#111b22"/></linearGradient><filter id="grain"><feTurbulence baseFrequency=".72" numOctaves="3" seed="10"/><feColorMatrix values="1 0 0 0 0 0 1 0 0 0 0 0 1 0 0 0 0 0 .055 0"/></filter><clipPath id="c"><rect x="42" y="42" width="716" height="780" rx="28"/></clipPath></defs>
  <rect width="800" height="1000" rx="34" fill="#071017"/><rect x="22" y="22" width="756" height="956" rx="28" fill="none" stroke="#ff6378" stroke-opacity=".5" stroke-width="2"/>
  <g clip-path="url(#c)"><rect x="42" y="42" width="716" height="780" fill="url(#bg)"/><g fill="none" stroke="#ff6378" stroke-opacity=".16"><circle cx="607" cy="192" r="72"/><circle cx="607" cy="192" r="118"/><circle cx="607" cy="192" r="164"/><path d="M607 10v364M425 192h364"/></g><path d="M122 844c31-192 124-286 279-286 158 0 255 98 281 286Z" fill="url(#uniform)"/><path d="m297 589 101 81 103-82 43 62-37 193H286l-35-190Z" fill="#202f36"/><path d="m397 671 40 1 11 171h-63Z" fill="#121c22"/>
    <path d="M282 290c2-134 65-202 160-201 101 1 163 77 157 218l-14 148c-9 93-73 156-151 156-80 0-143-67-151-161Z" fill="url(#skin)"/><path d="M269 330c-20-166 49-260 174-263 109-3 176 76 165 230-45-22-78-72-96-133-59 44-133 68-229 61Z" fill="#171c20"/><path d="M278 213c-42 67-34 167 8 220l15-103-13-124Z" fill="#171c20"/><path d="M583 191c38 55 37 155 4 241l-14-107 3-135Z" fill="#171c20"/><path d="M584 196c62 73 82 179 45 274 34-18 55-50 66-92 20-77-22-172-103-207Z" fill="#171c20"/><path d="M625 462c40 39 48 92 31 158M638 479c54 44 73 97 60 158" stroke="#171c20" stroke-width="18" fill="none"/>
    <path d="M337 356c25-13 53-12 76 3M473 357c24-12 51-9 73 6" stroke="#49322f" stroke-width="10" stroke-linecap="round"/><ellipse cx="380" cy="381" rx="9" ry="11" fill="#080e12"/><ellipse cx="514" cy="383" rx="9" ry="11" fill="#080e12"/><path d="M443 388c-2 32-7 53-18 70 14 8 29 9 43 2" stroke="#68423a" stroke-width="8" fill="none" stroke-linecap="round"/><path d="M376 493c42 19 87 18 129-4" stroke="#713b40" stroke-width="9" fill="none" stroke-linecap="round"/>
    <g transform="translate(545 565)"><rect width="105" height="210" rx="14" fill="#0a1117" stroke="#ff6378" stroke-width="6"/><path d="M18 0V-55M34 0V-28" stroke="#ff6378" stroke-width="7"/><rect x="18" y="27" width="69" height="66" rx="7" fill="#1c3238"/><path d="M29 46h47M29 63h34M29 80h43" stroke="#6ee7f2" stroke-width="4"/><circle cx="31" cy="125" r="10" fill="#f4b35d"/><circle cx="73" cy="125" r="10" fill="#6ee7f2"/><path d="M21 157h63M21 175h63" stroke="#748d91" stroke-width="6"/></g><path d="M208 675h88v126h-88Z" fill="#17252b" stroke="#8aa0a4" stroke-width="5"/><path d="m252 694 26 22-10 52-16 13-16-13-10-52Z" fill="#f4b35d" opacity=".78"/><rect x="42" y="42" width="716" height="780" filter="url(#grain)"/></g>
  <g font-family="Arial, Helvetica, sans-serif"><text x="64" y="875" fill="#ff6378" font-size="22" letter-spacing="4">ПОДОЗРЕВАЕМАЯ 03 // ОХРАНА</text><text x="64" y="925" fill="#eef7f6" font-size="39" font-weight="700">НИКА СОКОЛОВА</text><text x="64" y="959" fill="#9bb5ba" font-size="20">камеры • пропуска • аварийный протокол</text></g>
</svg>
