<svg xmlns="http://www.w3.org/2000/svg" viewBox="0 0 800 1000" role="img" aria-labelledby="title desc">
  <title id="title">Лев Арсеньев</title><desc id="desc">Стилизованный портрет бывшего соведущего Льва Арсеньева с волнистыми волосами, шарфом и записной книжкой.</desc>
  <defs><linearGradient id="bg" x2="1" y2="1"><stop stop-color="#23383a"/><stop offset="1" stop-color="#070b0e"/></linearGradient><linearGradient id="skin" x2="1" y2="1"><stop stop-color="#e8bb99"/><stop offset="1" stop-color="#8d5b4a"/></linearGradient><linearGradient id="cardigan" x2="1" y2="1"><stop stop-color="#5e4d43"/><stop offset="1" stop-color="#1c2023"/></linearGradient><filter id="grain"><feTurbulence baseFrequency=".76" numOctaves="2" seed="19"/><feColorMatrix values="1 0 0 0 0 0 1 0 0 0 0 0 1 0 0 0 0 0 .055 0"/></filter><clipPath id="c"><rect x="42" y="42" width="716" height="780" rx="28"/></clipPath></defs>
  <rect width="800" height="1000" rx="34" fill="#071017"/><rect x="22" y="22" width="756" height="956" rx="28" fill="none" stroke="#79d6b4" stroke-opacity=".46" stroke-width="2"/>
  <g clip-path="url(#c)"><rect x="42" y="42" width="716" height="780" fill="url(#bg)"/><path d="M42 626c139-62 208 14 326-40 129-58 201-221 390-205v441H42Z" fill="#0b1417"/><g fill="none" stroke="#79d6b4" stroke-opacity=".14"><path d="M42 138h110l18-28 21 57 20-40 24 11h100l23-31 20 31h104l28-52 23 52h225M42 193h78l19-17 18 17h148l23-28 24 28h88l21-49 31 49h216"/></g><path d="M136 846c25-188 117-282 270-288 158-6 257 96 275 288Z" fill="url(#cardigan)"/><path d="m291 590 106 76 107-77 54 69-77 188H321l-80-188Z" fill="#d6d0be"/><path d="M330 603c17 57 54 87 107 92l-43 152h-98l-13-182ZM503 601c-19 61-54 92-107 94l44 152h81l37-188Z" fill="#31464a"/>
    <path d="M283 294c3-135 67-203 161-202 102 1 163 78 156 220l-15 146c-10 92-73 154-150 154-79 0-142-67-151-160Z" fill="url(#skin)"/><path d="M269 330c-22-167 46-259 170-267 117-7 188 76 166 246-39-9-68-47-83-107-52 56-128 77-236 57Z" fill="#3a2d2a"/><path d="M276 199c-50 41-55 113-9 165M303 130c-48 22-62 84-33 125M364 78c-48 14-67 59-50 105M439 64c-45-8-75 31-68 77M506 77c-48-14-78 26-64 74M566 112c-43-11-71 37-53 81M599 160c-39 6-55 54-30 89" stroke="#3a2d2a" stroke-width="36" stroke-linecap="round" fill="none"/>
    <path d="M338 356c25-13 53-12 76 3M473 357c24-12 51-9 73 6" stroke="#503633" stroke-width="9" stroke-linecap="round"/><ellipse cx="381" cy="381" rx="9" ry="11" fill="#090f12"/><ellipse cx="514" cy="383" rx="9" ry="11" fill="#090f12"/><path d="M444 388c-2 32-7 53-18 70 14 8 29 9 43 2" stroke="#764c42" stroke-width="8" fill="none" stroke-linecap="round"/><path d="M377 493c42 23 88 22 130-4" stroke="#7d4340" stroke-width="9" fill="none" stroke-linecap="round"/><path d="M373 510c11 35 126 37 142-4-45 21-91 22-142 4Z" fill="#4a3733" opacity=".65"/>
    <g transform="translate(556 594) rotate(-7)"><rect width="118" height="195" rx="9" fill="#d7d0bb" stroke="#79d6b4" stroke-width="6"/><path d="M22 38h74M22 65h57M22 92h77M22 119h67M22 146h75" stroke="#40545a" stroke-width="5"/><path d="M0 22h-15M0 52h-15M0 82h-15M0 112h-15M0 142h-15M0 172h-15" stroke="#f4b35d" stroke-width="6"/></g><rect x="42" y="42" width="716" height="780" filter="url(#grain)"/></g>
  <g font-family="Arial, Helvetica, sans-serif"><text x="64" y="875" fill="#79d6b4" font-size="22" letter-spacing="4">ПОДОЗРЕВАЕМЫЙ 05 // БЫВШИЙ СОВЕДУЩИЙ</text><text x="64" y="925" fill="#eef7f6" font-size="39" font-weight="700">ЛЕВ АРСЕНЬЕВ</text><text x="64" y="959" fill="#9bb5ba" font-size="20">подкаст • публичный конфликт • личный архив</text></g>
</svg>
