<svg xmlns="http://www.w3.org/2000/svg" viewBox="0 0 800 1000" role="img" aria-labelledby="title desc">
  <title id="title">Ева Миронова</title><desc id="desc">Стилизованный портрет продюсера выставки Евы Мироновой с планшетом и гарнитурой.</desc>
  <defs><linearGradient id="bg" x2="1" y2="1"><stop stop-color="#18343c"/><stop offset="1" stop-color="#070b12"/></linearGradient><linearGradient id="skin" x2="1" y2="1"><stop stop-color="#edc5a8"/><stop offset="1" stop-color="#9f6756"/></linearGradient><linearGradient id="jacket" x2="1" y2="1"><stop stop-color="#5e4264"/><stop offset="1" stop-color="#1c1d2a"/></linearGradient><filter id="grain"><feTurbulence baseFrequency=".7" numOctaves="2" seed="8"/><feColorMatrix values="1 0 0 0 0 0 1 0 0 0 0 0 1 0 0 0 0 0 .055 0"/></filter><clipPath id="c"><rect x="42" y="42" width="716" height="780" rx="28"/></clipPath></defs>
  <rect width="800" height="1000" rx="34" fill="#071017"/><rect x="22" y="22" width="756" height="956" rx="28" fill="none" stroke="#aa8bff" stroke-opacity=".46" stroke-width="2"/>
  <g clip-path="url(#c)"><rect x="42" y="42" width="716" height="780" fill="url(#bg)"/><circle cx="565" cy="171" r="178" fill="#aa8bff" opacity=".08"/><g stroke="#aa8bff" stroke-opacity=".14"><path d="M42 160h716M42 285h716M42 410h716M42 535h716"/><path d="M166 42v780M291 42v780M416 42v780M541 42v780M666 42v780"/></g>
    <path d="M154 842c27-185 108-276 250-282 155-6 246 90 264 282Z" fill="url(#jacket)"/><path d="m300 594 102 74 93-76 40 61-111 162-139-153Z" fill="#d8cfd4"/><path d="M281 287c4-135 67-205 162-204 103 1 163 79 155 222l-15 150c-9 94-73 157-150 157-80 0-144-68-152-164Z" fill="url(#skin)"/>
    <path d="M261 395c-9-115-12-246 81-306 85-56 202-28 257 59 22 35 30 82 23 140-42-28-76-78-85-127-60 50-139 80-245 63l-6 176Z" fill="#2d202b"/><path d="M274 249c-42 24-60 81-46 151 9 44 30 79 58 104l12-114-6-166ZM590 181c56 62 57 183-6 293l-14-125 10-185Z" fill="#2d202b"/>
    <path d="M340 357c25-12 52-11 75 4M470 358c25-12 51-9 72 7" stroke="#563a3b" stroke-width="9" stroke-linecap="round"/><ellipse cx="383" cy="382" rx="9" ry="11" fill="#11131a"/><ellipse cx="509" cy="384" rx="9" ry="11" fill="#11131a"/><path d="M441 386c-2 31-7 51-17 69 14 8 28 10 42 3" stroke="#80554e" stroke-width="8" fill="none" stroke-linecap="round"/><path d="M378 493c43 28 92 28 135 0" stroke="#8e4752" stroke-width="11" fill="none" stroke-linecap="round"/>
    <path d="M603 308c44 14 66 49 64 104" stroke="#f4b35d" stroke-width="7" fill="none"/><circle cx="667" cy="419" r="12" fill="#f4b35d"/><g transform="translate(520 586) rotate(-6)"><rect width="160" height="216" rx="15" fill="#0b141b" stroke="#6ee7f2" stroke-width="6"/><rect x="17" y="24" width="126" height="137" fill="#122a33"/><path d="M34 55h87M34 83h58M34 111h99M34 139h72" stroke="#6ee7f2" stroke-opacity=".7" stroke-width="5"/><circle cx="80" cy="188" r="9" fill="#f4b35d"/></g><rect x="42" y="42" width="716" height="780" filter="url(#grain)"/></g>
  <g font-family="Arial, Helvetica, sans-serif"><text x="64" y="875" fill="#aa8bff" font-size="22" letter-spacing="4">ПОДОЗРЕВАЕМАЯ 01 // ПРОДЮСЕР</text><text x="64" y="925" fill="#eef7f6" font-size="39" font-weight="700">ЕВА МИРОНОВА</text><text x="64" y="959" fill="#9bb5ba" font-size="20">программа • расписание • доступ участников</text></g>
</svg>
