<svg xmlns="http://www.w3.org/2000/svg" viewBox="0 0 800 1000" role="img" aria-labelledby="title desc">
  <title id="title">Артём Костин</title><desc id="desc">Стилизованный портрет звукорежиссёра Артёма Костина в худи, с наушниками и кабелем.</desc>
  <defs><linearGradient id="bg" x2="1" y2="1"><stop stop-color="#143237"/><stop offset="1" stop-color="#06090e"/></linearGradient><linearGradient id="skin" x2="1" y2="1"><stop stop-color="#d9aa8c"/><stop offset="1" stop-color="#825044"/></linearGradient><linearGradient id="hood" x2="1" y2="1"><stop stop-color="#22525c"/><stop offset="1" stop-color="#101d25"/></linearGradient><filter id="grain"><feTurbulence baseFrequency=".8" numOctaves="2" seed="3"/><feColorMatrix values="1 0 0 0 0 0 1 0 0 0 0 0 1 0 0 0 0 0 .055 0"/></filter><clipPath id="c"><rect x="42" y="42" width="716" height="780" rx="28"/></clipPath></defs>
  <rect width="800" height="1000" rx="34" fill="#071017"/><rect x="22" y="22" width="756" height="956" rx="28" fill="none" stroke="#6ee7f2" stroke-opacity=".46" stroke-width="2"/>
  <g clip-path="url(#c)"><rect x="42" y="42" width="716" height="780" fill="url(#bg)"/><path d="M42 632c121-60 172-13 271-55 100-43 168-149 445-154v399H42Z" fill="#071117"/><g fill="none" stroke="#6ee7f2" stroke-opacity=".16"><path d="M42 195c115 40 166-52 274 2 105 52 166-40 263-5 70 25 112-11 179-13M42 243c115 40 166-52 274 2 105 52 166-40 263-5 70 25 112-11 179-13M42 291c115 40 166-52 274 2 105 52 166-40 263-5 70 25 112-11 179-13"/></g>
    <path d="M143 850c22-187 115-286 267-292 159-5 257 99 270 292Z" fill="url(#hood)"/><path d="M242 652c24-90 88-138 170-140 86-3 160 49 190 144l-57 64-58-111-80 68-79-68-59 112Z" fill="#182b33"/><path d="M284 285c6-131 70-197 161-196 98 2 157 75 151 214l-16 150c-10 92-71 154-146 154-78 0-141-67-151-160Z" fill="url(#skin)"/>
    <path d="M274 307c-20-147 54-243 178-239 103 4 170 82 151 221-55-34-98-84-113-137-61 46-129 70-209 70Z" fill="#111d24"/><path d="M276 213c-36 56-35 140 5 205l18-92-8-125Z" fill="#111d24"/>
    <path d="M340 354c22-12 49-11 72 3M471 355c23-11 49-9 69 6" stroke="#4e3634" stroke-width="10" stroke-linecap="round"/><ellipse cx="381" cy="379" rx="8" ry="11" fill="#071017"/><ellipse cx="509" cy="381" rx="8" ry="11" fill="#071017"/><path d="M442 383c-3 34-9 55-20 72 14 8 29 9 44 2" stroke="#6f493f" stroke-width="8" fill="none" stroke-linecap="round"/><path d="M371 495c42 20 89 19 132-4" stroke="#713d3d" stroke-width="8" fill="none" stroke-linecap="round"/><path d="M365 511c13 57 136 57 154-4-40 18-78 20-114 8Z" fill="#2c2929" opacity=".6"/>
    <path d="M282 331c-31 1-48 30-45 72M584 333c31 2 46 31 42 73" stroke="#f4b35d" stroke-width="13" fill="none"/><path d="M236 407c-28 0-45-17-45-43v-68c0-30 18-46 46-46M627 409c29 0 46-17 46-45v-67c0-30-17-46-46-46" stroke="#132029" stroke-width="27" fill="none"/>
    <g transform="translate(92 589)"><path d="M0 0c90 10 116 47 105 111-7 43 4 76 45 99 39 22 54 56 47 104" stroke="#f4b35d" stroke-width="9" fill="none"/><circle cx="197" cy="318" r="17" fill="#f4b35d"/><circle cx="197" cy="318" r="7" fill="#071017"/></g><rect x="42" y="42" width="716" height="780" filter="url(#grain)"/></g>
  <g font-family="Arial, Helvetica, sans-serif"><text x="64" y="875" fill="#6ee7f2" font-size="22" letter-spacing="4">ПОДОЗРЕВАЕМЫЙ 02 // ЗВУКОРЕЖИССЁР</text><text x="64" y="925" fill="#eef7f6" font-size="39" font-weight="700">АРТЁМ КОСТИН</text><text x="64" y="959" fill="#9bb5ba" font-size="20">эфир • автоматика • оборудование станции</text></g>
</svg>
