<svg xmlns="http://www.w3.org/2000/svg" viewBox="0 0 1500 1160" role="img" aria-labelledby="title desc">
  <title id="title">Фрагменты разорванной служебной записки</title>
  <desc id="desc">Двенадцать отдельных неровных фрагментов бумаги, разложенных в четыре столбца и три ряда, с частями таблицы, рукописных отметок и служебного текста.</desc>
  <defs>
    <linearGradient id="p" x2="1" y2="1"><stop stop-color="#e7dfc7"/><stop offset="1" stop-color="#bcae8e"/></linearGradient>
    <filter id="shadow" x="-20%" y="-20%" width="150%" height="150%"><feDropShadow dx="8" dy="12" stdDeviation="8" flood-color="#000" flood-opacity=".5"/></filter>
    <filter id="grain"><feTurbulence baseFrequency=".34" numOctaves="3" seed="6"/><feColorMatrix values="1 0 0 0 0 0 1 0 0 0 0 0 1 0 0 0 0 0 .06 0"/></filter>
  </defs>
  <rect width="1500" height="1160" fill="#071017"/><path d="M0 80h1500M0 240h1500M0 400h1500M0 560h1500M0 720h1500M0 880h1500M0 1040h1500M180 0v1160M360 0v1160M540 0v1160M720 0v1160M900 0v1160M1080 0v1160M1260 0v1160M1440 0v1160" stroke="#6ee7f2" stroke-opacity=".055"/>
  <g font-family="Arial, Helvetica, sans-serif" fill="#26383a" filter="url(#shadow)">
    <g id="piece-1" transform="translate(84 95) rotate(-7)" aria-label="Фрагмент 1 из 12"><title>Фрагмент 1 из 12</title><path d="M0 28 63 0l72 18 54-12 45 29-12 66 21 51-29 64 8 50-72 22-53-16-64 17-40-51 13-58-22-56 25-48Z" fill="url(#p)" stroke="#f2ecd8" stroke-width="4"/><text x="35" y="65" font-size="18" font-weight="700">СЛУЖЕБНАЯ</text><text x="35" y="91" font-size="18" font-weight="700">ЗАПИСКА</text><path d="M35 112h145M35 138h102M35 164h132" stroke="#566668" stroke-width="5"/><text x="35" y="202" font-size="16">контур вещания</text><path d="M20 21h205v255H20Z" filter="url(#grain)"/></g>
    <g id="piece-2" transform="translate(399 82) rotate(5)" aria-label="Фрагмент 2 из 12"><title>Фрагмент 2 из 12</title><path d="M13 0 80 20l63-14 52 27 58-9 27 62-22 49 19 63-38 44-45-11-54 30-61-21-55 9-24-63 19-49-17-61 33-35Z" fill="url(#p)" stroke="#f2ecd8" stroke-width="4"/><text x="39" y="67" font-size="16">копия для аппаратной</text><path d="M37 91h188M37 119h151M37 147h176" stroke="#536567" stroke-width="5"/><text x="39" y="187" font-size="17" font-weight="700">КАНАЛ B</text><text x="145" y="187" font-size="17">резерв</text><path d="M20 18h240v220H20Z" filter="url(#grain)"/></g>
    <g id="piece-3" transform="translate(758 80) rotate(-3)" aria-label="Фрагмент 3 из 12"><title>Фрагмент 3 из 12</title><path d="M0 34 60 7l60 14 50-20 57 35 68-12 20 63-28 45 27 54-37 57-64-14-47 31-56-26-64 13-21-62 28-49-24-50 35-42Z" fill="url(#p)" stroke="#f2ecd8" stroke-width="4"/><text x="39" y="71" font-size="17">Порядок запуска:</text><text x="39" y="104" font-size="16">1. контрольная метка</text><text x="39" y="135" font-size="16">2. пауза / проверка</text><text x="39" y="166" font-size="16">3. запись по схеме</text><path d="M42 196h161" stroke="#364a4d" stroke-width="5"/><path d="M17 19h220v226H17Z" filter="url(#grain)"/></g>
    <g id="piece-4" transform="translate(1110 99) rotate(8)" aria-label="Фрагмент 4 из 12"><title>Фрагмент 4 из 12</title><path d="M15 0 69 21l54-16 47 29 57-17 32 53-20 55 25 50-31 58-56-11-50 30-54-25-52 16-31-55 24-55-20-49 33-43Z" fill="url(#p)" stroke="#f2ecd8" stroke-width="4"/><text x="35" y="63" font-size="16">время панели</text><text x="35" y="94" font-size="22" font-weight="700">не равно</text><text x="35" y="127" font-size="16">метке камеры</text><path d="M35 160h167M35 188h125" stroke="#566668" stroke-width="5"/><path d="M19 17h216v215H19Z" filter="url(#grain)"/></g>
    <g id="piece-5" transform="translate(84 397) rotate(4)" aria-label="Фрагмент 5 из 12"><title>Фрагмент 5 из 12</title><path d="M0 23 55 0l65 19 48-13 59 29 58-6 28 60-23 52 20 62-34 54-62-17-49 30-65-21-56 14-30-63 28-53-25-58 34-39Z" fill="url(#p)" stroke="#f2ecd8" stroke-width="4"/><text x="38" y="68" font-size="17" font-weight="700">РУЧНОЙ РЕЖИМ</text><path d="M38 91h166M38 120h188M38 149h142" stroke="#536567" stroke-width="5"/><text x="38" y="191" font-size="16">отметка в журнале</text><path d="M18 17h226v230H18Z" filter="url(#grain)"/></g>
    <g id="piece-6" transform="translate(399 405) rotate(-6)" aria-label="Фрагмент 6 из 12"><title>Фрагмент 6 из 12</title><path d="M16 0 72 23l54-15 57 25 52-18 37 50-19 57 25 46-31 66-66-15-46 33-65-25-53 15-33-56 25-55-24-51 34-43Z" fill="url(#p)" stroke="#f2ecd8" stroke-width="4"/><text x="39" y="64" font-size="16">Считыватель:</text><text x="39" y="98" font-size="19" font-weight="700">фиксирует карту,</text><text x="39" y="130" font-size="17">но не личность</text><path d="M39 164h168M39 191h121" stroke="#566668" stroke-width="5"/><circle cx="212" cy="194" r="26" fill="none" stroke="#a14642" stroke-width="6" opacity=".7"/><path d="M20 18h225v216H20Z" filter="url(#grain)"/></g>
    <g id="piece-7" transform="translate(758 392) rotate(7)" aria-label="Фрагмент 7 из 12"><title>Фрагмент 7 из 12</title><path d="M0 30 62 4l58 18 53-20 55 35 62-10 25 62-25 48 23 59-36 56-58-16-50 31-61-23-59 15-26-63 27-53-23-55 32-40Z" fill="url(#p)" stroke="#f2ecd8" stroke-width="4"/><text x="37" y="72" font-size="17">проверить часы</text><text x="37" y="104" font-size="17">по импульсу</text><path d="M37 134h164M37 162h133" stroke="#536567" stroke-width="5"/><text x="37" y="204" font-size="19" font-style="italic">до предпоказа!</text><path d="M18 21h224v223H18Z" filter="url(#grain)"/></g>
    <g id="piece-8" transform="translate(1110 410) rotate(-5)" aria-label="Фрагмент 8 из 12"><title>Фрагмент 8 из 12</title><path d="M13 0 64 22l51-15 49 29 53-19 30 52-18 54 20 50-29 58-54-12-46 29-53-23-50 14-30-55 23-51-21-53 31-39Z" fill="url(#p)" stroke="#f2ecd8" stroke-width="4"/><text x="34" y="65" font-size="16">Приложение:</text><text x="34" y="96" font-size="16">таблица сигналов</text><path d="M34 126h164M34 153h126M34 180h151" stroke="#536567" stroke-width="5"/><path d="M18 18h203v212H18Z" filter="url(#grain)"/></g>
    <g id="piece-9" transform="translate(84 706) rotate(-5)" aria-label="Фрагмент 9 из 12"><title>Фрагмент 9 из 12</title><path d="M6 17 58 0l58 20 56-14 48 31 61-9 22 58-20 51 21 54-33 57-62-13-43 30-62-22-58 17-29-60 24-51-22-54 34-40Z" fill="url(#p)" stroke="#f2ecd8" stroke-width="4"/><text x="37" y="62" font-size="16">основной канал A</text><path d="M37 89h183M37 118h145M37 147h169" stroke="#536567" stroke-width="5"/><text x="37" y="190" font-size="17" font-weight="700">контрольная метка</text><path d="M18 17h235v225H18Z" filter="url(#grain)"/></g>
    <g id="piece-10" transform="translate(399 700) rotate(6)" aria-label="Фрагмент 10 из 12"><title>Фрагмент 10 из 12</title><path d="M13 0 70 19l49-13 58 28 55-16 33 54-21 51 24 57-34 56-59-14-48 31-57-24-55 14-31-58 26-52-25-50 35-42Z" fill="url(#p)" stroke="#f2ecd8" stroke-width="4"/><text x="37" y="63" font-size="16">резервный канал B</text><path d="M37 91h174M37 119h142M37 147h177" stroke="#536567" stroke-width="5"/><text x="37" y="190" font-size="17">пауза / сверка</text><path d="M18 17h224v221H18Z" filter="url(#grain)"/></g>
    <g id="piece-11" transform="translate(758 708) rotate(-4)" aria-label="Фрагмент 11 из 12"><title>Фрагмент 11 из 12</title><path d="M0 29 61 5l52 16 56-19 53 34 61-10 25 59-24 50 22 56-32 61-63-16-45 31-61-24-58 15-28-62 26-48-24-57 34-39Z" fill="url(#p)" stroke="#f2ecd8" stroke-width="4"/><text x="36" y="70" font-size="16">карта у считывателя</text><text x="36" y="102" font-size="18" font-weight="700">не подтверждает</text><text x="36" y="132" font-size="18" font-weight="700">личность владельца</text><path d="M36 165h170M36 193h128" stroke="#536567" stroke-width="5"/><path d="M18 19h228v225H18Z" filter="url(#grain)"/></g>
    <g id="piece-12" transform="translate(1110 702) rotate(5)" aria-label="Фрагмент 12 из 12"><title>Фрагмент 12 из 12</title><path d="M16 0 65 22l56-16 48 29 54-18 31 54-19 53 23 50-31 61-59-15-44 30-56-23-53 15-31-57 25-53-22-52 32-40Z" fill="url(#p)" stroke="#f2ecd8" stroke-width="4"/><text x="35" y="65" font-size="16">после сборки:</text><text x="35" y="98" font-size="19" font-weight="700">сверить журнал</text><path d="M35 127h165M35 155h131M35 183h151" stroke="#536567" stroke-width="5"/><circle cx="200" cy="193" r="25" fill="none" stroke="#a14642" stroke-width="6" opacity=".7"/><path d="M18 18h215v217H18Z" filter="url(#grain)"/></g>
  </g>
  <g font-family="Arial, Helvetica, sans-serif"><text x="58" y="1112" fill="#9bb5ba" font-size="20" letter-spacing="3">НАБОР ФРАГМЕНТОВ // 12 ЧАСТЕЙ // СЕТКА 4 × 3</text><text x="1442" y="1112" text-anchor="end" fill="#f4b35d" font-size="20">УЛИКА 14</text></g>
</svg>
